<svg width="209" height="34" viewBox="0 0 209 34" fill="none" xmlns="http://www.w3.org/2000/svg">
<path d="M0.0377149 33V1.05H3.18772V15.27H8.00271L18.9827 1.05H22.6277L10.6127 16.53L23.3927 33H19.5227L8.09272 18.15H3.18772V33H0.0377149ZM40.7082 1.05H43.3632L56.6382 33H53.3082L49.1682 23.01H34.8132L30.7182 33H27.3432L40.7082 1.05ZM48.4482 20.535L42.0132 4.74L35.4882 20.535H48.4482ZM83.1162 3.84H71.7312V33H68.5812V3.84H57.1962V1.05H83.1162V3.84ZM97.0197 1.05H99.6747L112.95 33H109.62L105.48 23.01H91.1247L87.0297 33H83.6547L97.0197 1.05ZM104.76 20.535L98.3247 4.74L91.7997 20.535H104.76ZM141.38 33V3.84H128.33L128.15 10.59C128 15 127.685 18.66 127.205 21.57C126.725 24.48 126.05 26.775 125.18 28.455C124.31 30.105 123.23 31.29 121.94 32.01C120.68 32.7 119.195 33.045 117.485 33.045V30.255C118.655 30.255 119.69 29.955 120.59 29.355C121.49 28.755 122.255 27.705 122.885 26.205C123.515 24.705 124.01 22.635 124.37 19.995C124.76 17.325 125.015 13.95 125.135 9.87L125.405 1.05H144.485V33H141.38ZM167.595 33.225C165.345 33.225 163.305 32.775 161.475 31.875C159.645 30.945 158.07 29.715 156.75 28.185C155.43 26.655 154.41 24.93 153.69 23.01C152.97 21.06 152.61 19.065 152.61 17.025C152.61 14.895 152.985 12.87 153.735 10.95C154.485 9 155.535 7.275 156.885 5.775C158.265 4.245 159.87 3.045 161.7 2.175C163.53 1.275 165.51 0.824998 167.64 0.824998C169.86 0.824998 171.885 1.29 173.715 2.22C175.545 3.15 177.12 4.395 178.44 5.955C179.79 7.515 180.81 9.255 181.5 11.175C182.22 13.095 182.58 15.06 182.58 17.07C182.58 19.2 182.205 21.24 181.455 23.19C180.705 25.11 179.655 26.835 178.305 28.365C176.955 29.865 175.365 31.05 173.535 31.92C171.705 32.79 169.725 33.225 167.595 33.225ZM155.76 17.025C155.76 18.765 156.045 20.43 156.615 22.02C157.185 23.61 157.995 25.035 159.045 26.295C160.095 27.555 161.34 28.56 162.78 29.31C164.25 30.03 165.855 30.39 167.595 30.39C169.425 30.39 171.06 30.015 172.5 29.265C173.97 28.485 175.215 27.45 176.235 26.16C177.285 24.87 178.08 23.445 178.62 21.885C179.16 20.295 179.43 18.675 179.43 17.025C179.43 15.285 179.145 13.62 178.575 12.03C178.005 10.44 177.18 9.015 176.1 7.755C175.05 6.495 173.805 5.505 172.365 4.785C170.925 4.065 169.335 3.705 167.595 3.705C165.795 3.705 164.16 4.08 162.69 4.83C161.25 5.58 160.005 6.6 158.955 7.89C157.935 9.15 157.14 10.575 156.57 12.165C156.03 13.755 155.76 15.375 155.76 17.025ZM190.769 33V1.05H208.904V3.84H193.919V33H190.769Z" fill="white"/>
</svg>
