<svg width="830" height="56" viewBox="0 0 830 56" fill="none" xmlns="http://www.w3.org/2000/svg">
<g opacity="0.8">
<path d="M442.783 15.2695L433.45 4.06963C433.273 3.85777 433.011 3.73462 432.733 3.73462H397.267C396.99 3.73462 396.728 3.8569 396.55 4.06963L387.217 15.2695C386.985 15.5476 386.934 15.9349 387.088 16.2625C387.242 16.5901 387.572 16.8001 387.934 16.8001H442.066C442.429 16.8001 442.758 16.5901 442.912 16.2625C443.065 15.9359 443.016 15.5485 442.783 15.2695ZM389.927 14.9335L397.704 5.60031H432.296L440.073 14.9335H389.927Z" fill="#020F59"/>
<path d="M415.863 4.30937C415.718 3.96036 415.378 3.73352 415.001 3.73352H397.268C396.934 3.73352 396.626 3.9118 396.459 4.20208C396.292 4.49235 396.292 4.84793 396.461 5.13722L402.995 16.3371C403.14 16.5862 403.393 16.7552 403.681 16.7925C403.721 16.7972 403.761 16.7999 403.8 16.7999C404.046 16.7999 404.284 16.7029 404.461 16.5265L415.661 5.32666C415.928 5.05978 416.008 4.65838 415.863 4.30937ZM403.996 14.351L398.892 5.6002H412.747L403.996 14.351Z" fill="#020F59"/>
<path d="M442.902 15.4526C442.746 15.1343 442.421 14.9327 442.066 14.9327H387.934C387.579 14.9327 387.255 15.1343 387.097 15.4526C386.941 15.7709 386.977 16.1507 387.193 16.4326L414.259 51.8988C414.435 52.1302 414.71 52.2665 415.001 52.2665C415.292 52.2665 415.566 52.1302 415.741 51.8988L442.807 16.4326C443.023 16.1507 443.059 15.7709 442.902 15.4526ZM415.001 49.7951L389.821 16.8004H440.181L415.001 49.7951Z" fill="#020F59"/>
<path d="M415.89 51.0514L404.691 15.5852C404.567 15.1969 404.208 14.9327 403.8 14.9327H387.934C387.579 14.9327 387.255 15.1343 387.097 15.4526C386.941 15.7709 386.977 16.1507 387.193 16.4326L414.259 51.8988C414.44 52.1368 414.717 52.2665 415.001 52.2665C415.146 52.2665 415.294 52.2329 415.43 52.1601C415.833 51.9521 416.027 51.4835 415.89 51.0514ZM389.82 16.8004H403.116L412.501 46.5211L389.82 16.8004Z" fill="#020F59"/>
<path d="M433.542 4.20208C433.376 3.9118 433.067 3.73352 432.733 3.73352H415C414.623 3.73352 414.282 3.96036 414.138 4.30937C413.993 4.65838 414.073 5.05978 414.34 5.32666L425.54 16.5265C425.715 16.7029 425.953 16.7999 426.2 16.7999C426.24 16.7999 426.28 16.7971 426.32 16.7925C426.607 16.7552 426.861 16.5872 427.006 16.3371L433.539 5.13722C433.707 4.84793 433.708 4.49235 433.542 4.20208ZM426.004 14.351L417.253 5.6002H431.108L426.004 14.351Z" fill="#020F59"/>
<path d="M442.904 15.4544C442.747 15.1361 442.422 14.9346 442.067 14.9346H426.201C425.793 14.9346 425.433 15.1987 425.311 15.587L414.111 51.0532C413.974 51.4844 414.169 51.9529 414.571 52.162C414.707 52.2329 414.855 52.2666 415 52.2666C415.283 52.2666 415.56 52.1369 415.742 51.9007L442.808 16.4345C443.024 16.1524 443.06 15.7726 442.904 15.4544ZM417.499 46.5209L426.884 16.8002H440.18L417.499 46.5209Z" fill="#020F59"/>
<rect y="27" width="308" height="2" fill="#020F59"/>
<rect x="522" y="27" width="308" height="2" fill="#020F59"/>
</g>
</svg>
