<svg width="830" height="109" viewBox="0 0 830 109" fill="none" xmlns="http://www.w3.org/2000/svg">
<path d="M285.135 105V90.8H294.655V92.04H286.535V96.98H291.215C292.775 96.98 293.929 97.3467 294.675 98.08C295.422 98.8 295.795 99.74 295.795 100.9C295.795 101.66 295.629 102.353 295.295 102.98C294.975 103.593 294.482 104.087 293.815 104.46C293.149 104.82 292.322 105 291.335 105H285.135ZM286.535 103.76H291.175C291.935 103.76 292.549 103.62 293.015 103.34C293.495 103.06 293.842 102.7 294.055 102.26C294.269 101.807 294.375 101.34 294.375 100.86C294.375 100.38 294.282 99.9333 294.095 99.52C293.909 99.0933 293.575 98.7533 293.095 98.5C292.629 98.2333 291.969 98.1 291.115 98.1H286.535V103.76ZM299.182 105V90.8H305.062C305.676 90.8 306.236 90.9267 306.742 91.18C307.262 91.4333 307.709 91.78 308.082 92.22C308.469 92.6467 308.762 93.1267 308.962 93.66C309.176 94.18 309.282 94.7133 309.282 95.26C309.282 96.0333 309.109 96.7667 308.762 97.46C308.416 98.14 307.936 98.6933 307.322 99.12C306.709 99.5467 305.996 99.76 305.182 99.76H300.582V105H299.182ZM300.582 98.52H305.122C305.682 98.52 306.169 98.3667 306.582 98.06C306.996 97.7533 307.316 97.3533 307.542 96.86C307.769 96.3667 307.882 95.8333 307.882 95.26C307.882 94.6733 307.749 94.14 307.482 93.66C307.216 93.1667 306.862 92.7733 306.422 92.48C305.996 92.1867 305.522 92.04 305.002 92.04H300.582V98.52ZM312.704 105V90.8H314.084V103.08L322.884 90.8H324.184V105H322.804V92.94L314.104 105H312.704ZM338.419 105V92.04H332.619L332.539 95.04C332.472 97 332.332 98.6267 332.119 99.92C331.906 101.213 331.606 102.233 331.219 102.98C330.832 103.713 330.352 104.24 329.779 104.56C329.219 104.867 328.559 105.02 327.799 105.02V103.78C328.319 103.78 328.779 103.647 329.179 103.38C329.579 103.113 329.919 102.647 330.199 101.98C330.479 101.313 330.699 100.393 330.859 99.22C331.032 98.0333 331.146 96.5333 331.199 94.72L331.319 90.8H339.799V105H338.419ZM353.95 105V92.04H348.15L348.07 95.04C348.004 97 347.864 98.6267 347.65 99.92C347.437 101.213 347.137 102.233 346.75 102.98C346.364 103.713 345.884 104.24 345.31 104.56C344.75 104.867 344.09 105.02 343.33 105.02V103.78C343.85 103.78 344.31 103.647 344.71 103.38C345.11 103.113 345.45 102.647 345.73 101.98C346.01 101.313 346.23 100.393 346.39 99.22C346.564 98.0333 346.677 96.5333 346.73 94.72L346.85 90.8H355.33V105H353.95ZM359.962 105V90.8H361.342V103.08L370.142 90.8H371.442V105H370.062V92.94L361.362 105H359.962ZM380.477 90.8H381.657L387.557 105H386.077L384.237 100.56H377.857L376.037 105H374.537L380.477 90.8ZM383.917 99.46L381.057 92.44L378.157 99.46H383.917ZM401.793 90.8V105H400.413V98.36H391.993V105H390.593V90.8H391.993V97.12H400.413V90.8H401.793ZM416.438 92.04H411.378V105H409.978V92.04H404.918V90.8H416.438V92.04ZM435.757 101.34C435.757 102.047 435.577 102.68 435.217 103.24C434.857 103.787 434.37 104.22 433.757 104.54C433.157 104.847 432.497 105 431.777 105H425.077V90.8H431.917C432.584 90.8 433.157 90.98 433.637 91.34C434.117 91.6867 434.49 92.14 434.757 92.7C435.024 93.2467 435.157 93.82 435.157 94.42C435.157 95.1267 434.977 95.78 434.617 96.38C434.257 96.98 433.757 97.4267 433.117 97.72C433.917 97.96 434.557 98.4067 435.037 99.06C435.517 99.7133 435.757 100.473 435.757 101.34ZM426.477 92.02V97.26H431.357C431.824 97.26 432.237 97.14 432.597 96.9C432.97 96.6467 433.257 96.3267 433.457 95.94C433.67 95.54 433.777 95.1067 433.777 94.64C433.777 94.16 433.677 93.72 433.477 93.32C433.277 92.92 433.004 92.6067 432.657 92.38C432.31 92.14 431.917 92.02 431.477 92.02H426.477ZM434.357 101.1C434.357 100.633 434.25 100.193 434.037 99.78C433.824 99.3667 433.53 99.0333 433.157 98.78C432.797 98.5267 432.384 98.4 431.917 98.4H426.477V103.78H431.777C432.257 103.78 432.69 103.653 433.077 103.4C433.464 103.147 433.77 102.82 433.997 102.42C434.237 102.007 434.357 101.567 434.357 101.1ZM445.495 105V90.8H456.215V105H454.815V92.04H446.895V105H445.495ZM466.492 105.1C465.492 105.1 464.586 104.9 463.772 104.5C462.959 104.087 462.259 103.54 461.672 102.86C461.086 102.18 460.632 101.413 460.312 100.56C459.992 99.6933 459.832 98.8067 459.832 97.9C459.832 96.9533 459.999 96.0533 460.332 95.2C460.666 94.3333 461.132 93.5667 461.732 92.9C462.346 92.22 463.059 91.6867 463.872 91.3C464.686 90.9 465.566 90.7 466.512 90.7C467.499 90.7 468.399 90.9067 469.212 91.32C470.026 91.7333 470.726 92.2867 471.312 92.98C471.912 93.6733 472.366 94.4467 472.672 95.3C472.992 96.1533 473.152 97.0267 473.152 97.92C473.152 98.8667 472.986 99.7733 472.652 100.64C472.319 101.493 471.852 102.26 471.252 102.94C470.652 103.607 469.946 104.133 469.132 104.52C468.319 104.907 467.439 105.1 466.492 105.1ZM461.232 97.9C461.232 98.6733 461.359 99.4133 461.612 100.12C461.866 100.827 462.226 101.46 462.692 102.02C463.159 102.58 463.712 103.027 464.352 103.36C465.006 103.68 465.719 103.84 466.492 103.84C467.306 103.84 468.032 103.673 468.672 103.34C469.326 102.993 469.879 102.533 470.332 101.96C470.799 101.387 471.152 100.753 471.392 100.06C471.632 99.3533 471.752 98.6333 471.752 97.9C471.752 97.1267 471.626 96.3867 471.372 95.68C471.119 94.9733 470.752 94.34 470.272 93.78C469.806 93.22 469.252 92.78 468.612 92.46C467.972 92.14 467.266 91.98 466.492 91.98C465.692 91.98 464.966 92.1467 464.312 92.48C463.672 92.8133 463.119 93.2667 462.652 93.84C462.199 94.4 461.846 95.0333 461.592 95.74C461.352 96.4467 461.232 97.1667 461.232 97.9ZM475.772 107.72V103.76H476.372C476.745 103.747 477.072 103.593 477.352 103.3C477.645 102.993 477.892 102.5 478.092 101.82C478.305 101.127 478.472 100.2 478.592 99.04C478.725 97.88 478.818 96.44 478.872 94.72L478.972 90.8H487.472V103.76H489.172V107.72H487.932V105H477.012V107.72H475.772ZM478.372 103.76H486.072V92.04H480.252L480.172 94.88C480.132 96.68 480.038 98.1867 479.892 99.4C479.758 100.6 479.565 101.553 479.312 102.26C479.058 102.953 478.745 103.453 478.372 103.76ZM497.172 90.8H498.352L504.252 105H502.772L500.932 100.56H494.552L492.732 105H491.232L497.172 90.8ZM500.612 99.46L497.752 92.44L494.852 99.46H500.612ZM507.288 105V90.8H513.168C513.781 90.8 514.341 90.9267 514.848 91.18C515.368 91.4333 515.814 91.78 516.188 92.22C516.574 92.6467 516.868 93.1267 517.068 93.66C517.281 94.18 517.388 94.7133 517.388 95.26C517.388 96.0333 517.214 96.7667 516.868 97.46C516.521 98.14 516.041 98.6933 515.428 99.12C514.814 99.5467 514.101 99.76 513.288 99.76H508.688V105H507.288ZM508.688 98.52H513.228C513.788 98.52 514.274 98.3667 514.688 98.06C515.101 97.7533 515.421 97.3533 515.648 96.86C515.874 96.3667 515.988 95.8333 515.988 95.26C515.988 94.6733 515.854 94.14 515.588 93.66C515.321 93.1667 514.968 92.7733 514.528 92.48C514.101 92.1867 513.628 92.04 513.108 92.04H508.688V98.52ZM526.449 105.1C525.449 105.1 524.543 104.9 523.729 104.5C522.916 104.087 522.216 103.54 521.629 102.86C521.043 102.18 520.589 101.413 520.269 100.56C519.949 99.6933 519.789 98.8067 519.789 97.9C519.789 96.9533 519.956 96.0533 520.289 95.2C520.623 94.3333 521.089 93.5667 521.689 92.9C522.303 92.22 523.016 91.6867 523.829 91.3C524.643 90.9 525.523 90.7 526.469 90.7C527.456 90.7 528.356 90.9067 529.169 91.32C529.983 91.7333 530.683 92.2867 531.269 92.98C531.869 93.6733 532.323 94.4467 532.629 95.3C532.949 96.1533 533.109 97.0267 533.109 97.92C533.109 98.8667 532.943 99.7733 532.609 100.64C532.276 101.493 531.809 102.26 531.209 102.94C530.609 103.607 529.903 104.133 529.089 104.52C528.276 104.907 527.396 105.1 526.449 105.1ZM521.189 97.9C521.189 98.6733 521.316 99.4133 521.569 100.12C521.823 100.827 522.183 101.46 522.649 102.02C523.116 102.58 523.669 103.027 524.309 103.36C524.963 103.68 525.676 103.84 526.449 103.84C527.263 103.84 527.989 103.673 528.629 103.34C529.283 102.993 529.836 102.533 530.289 101.96C530.756 101.387 531.109 100.753 531.349 100.06C531.589 99.3533 531.709 98.6333 531.709 97.9C531.709 97.1267 531.583 96.3867 531.329 95.68C531.076 94.9733 530.709 94.34 530.229 93.78C529.763 93.22 529.209 92.78 528.569 92.46C527.929 92.14 527.223 91.98 526.449 91.98C525.649 91.98 524.923 92.1467 524.269 92.48C523.629 92.8133 523.076 93.2667 522.609 93.84C522.156 94.4 521.803 95.0333 521.549 95.74C521.309 96.4467 521.189 97.1667 521.189 97.9ZM536.749 105V90.8H538.149V97.12H540.289L545.169 90.8H546.789L541.449 97.68L547.129 105H545.409L540.329 98.4H538.149V105H536.749Z" fill="black"/>
<g opacity="0.8">
<path d="M442.783 15.2695L433.45 4.06963C433.273 3.85777 433.011 3.73462 432.733 3.73462H397.267C396.99 3.73462 396.728 3.8569 396.55 4.06963L387.217 15.2695C386.985 15.5476 386.934 15.9349 387.088 16.2625C387.242 16.5901 387.572 16.8001 387.934 16.8001H442.066C442.429 16.8001 442.758 16.5901 442.912 16.2625C443.065 15.9359 443.016 15.5485 442.783 15.2695ZM389.927 14.9335L397.704 5.60031H432.296L440.073 14.9335H389.927Z" fill="#020F59"/>
<path d="M415.863 4.30937C415.718 3.96036 415.378 3.73352 415.001 3.73352H397.268C396.934 3.73352 396.626 3.9118 396.459 4.20208C396.292 4.49235 396.292 4.84793 396.461 5.13722L402.995 16.3371C403.14 16.5862 403.393 16.7552 403.681 16.7925C403.721 16.7972 403.761 16.7999 403.8 16.7999C404.046 16.7999 404.284 16.7029 404.461 16.5265L415.661 5.32666C415.928 5.05978 416.008 4.65838 415.863 4.30937ZM403.996 14.351L398.892 5.6002H412.747L403.996 14.351Z" fill="#020F59"/>
<path d="M442.902 15.4526C442.746 15.1343 442.421 14.9327 442.066 14.9327H387.934C387.579 14.9327 387.255 15.1343 387.097 15.4526C386.941 15.7709 386.977 16.1507 387.193 16.4326L414.259 51.8988C414.435 52.1302 414.71 52.2665 415.001 52.2665C415.292 52.2665 415.566 52.1302 415.741 51.8988L442.807 16.4326C443.023 16.1507 443.059 15.7709 442.902 15.4526ZM415.001 49.7951L389.821 16.8004H440.181L415.001 49.7951Z" fill="#020F59"/>
<path d="M415.89 51.0514L404.691 15.5852C404.567 15.1969 404.208 14.9327 403.8 14.9327H387.934C387.579 14.9327 387.255 15.1343 387.097 15.4526C386.941 15.7709 386.977 16.1507 387.193 16.4326L414.259 51.8988C414.44 52.1368 414.717 52.2665 415.001 52.2665C415.146 52.2665 415.294 52.2329 415.43 52.1601C415.833 51.9521 416.027 51.4835 415.89 51.0514ZM389.82 16.8004H403.116L412.501 46.5211L389.82 16.8004Z" fill="#020F59"/>
<path d="M433.542 4.20208C433.376 3.9118 433.067 3.73352 432.733 3.73352H415C414.623 3.73352 414.282 3.96036 414.138 4.30937C413.993 4.65838 414.073 5.05978 414.34 5.32666L425.54 16.5265C425.715 16.7029 425.953 16.7999 426.2 16.7999C426.24 16.7999 426.28 16.7971 426.32 16.7925C426.607 16.7552 426.861 16.5872 427.006 16.3371L433.539 5.13722C433.707 4.84793 433.708 4.49235 433.542 4.20208ZM426.004 14.351L417.253 5.6002H431.108L426.004 14.351Z" fill="#020F59"/>
<path d="M442.904 15.4544C442.747 15.1361 442.422 14.9346 442.067 14.9346H426.201C425.793 14.9346 425.433 15.1987 425.311 15.587L414.111 51.0532C413.974 51.4844 414.169 51.9529 414.571 52.162C414.707 52.2329 414.855 52.2666 415 52.2666C415.283 52.2666 415.56 52.1369 415.742 51.9007L442.808 16.4345C443.024 16.1524 443.06 15.7726 442.904 15.4544ZM417.499 46.5209L426.884 16.8002H440.18L417.499 46.5209Z" fill="#020F59"/>
<rect y="27" width="308" height="2" fill="#020F59"/>
<rect x="522" y="27" width="308" height="2" fill="#020F59"/>
</g>
</svg>
