<svg width="1920" height="70" viewBox="0 0 1920 70" fill="none" xmlns="http://www.w3.org/2000/svg">
<rect opacity="0.2" width="1920" height="70" fill="#9EAFC2"/>
<path d="M326.921 49H326.244V41.5693H326.921V49ZM326.148 39.5049C326.148 39.0674 326.292 38.8486 326.579 38.8486C326.72 38.8486 326.83 38.9056 326.907 39.0195C326.989 39.1335 327.03 39.2952 327.03 39.5049C327.03 39.71 326.989 39.8717 326.907 39.9902C326.83 40.1087 326.72 40.168 326.579 40.168C326.292 40.168 326.148 39.9469 326.148 39.5049ZM334.598 49V44.1807C334.598 43.4333 334.44 42.891 334.126 42.5537C333.812 42.2119 333.324 42.041 332.663 42.041C331.774 42.041 331.123 42.2666 330.708 42.7178C330.298 43.1644 330.093 43.8913 330.093 44.8984V49H329.416V41.5693H329.99L330.12 42.5879H330.161C330.644 41.8132 331.503 41.4258 332.738 41.4258C334.424 41.4258 335.268 42.3304 335.268 44.1396V49H334.598ZM340.436 42.1572H338.686V49H338.009V42.1572H336.628V41.7607L338.009 41.5078V40.9336C338.009 40.0221 338.175 39.3545 338.508 38.9307C338.845 38.5023 339.394 38.2881 340.155 38.2881C340.565 38.2881 340.976 38.3496 341.386 38.4727L341.229 39.0605C340.864 38.9466 340.502 38.8896 340.142 38.8896C339.613 38.8896 339.237 39.0469 339.014 39.3613C338.795 39.6712 338.686 40.1771 338.686 40.8789V41.5693H340.436V42.1572ZM348.017 45.2744C348.017 46.4867 347.723 47.4346 347.135 48.1182C346.547 48.7972 345.736 49.1367 344.701 49.1367C344.049 49.1367 343.475 48.9795 342.979 48.665C342.482 48.3506 342.101 47.8994 341.837 47.3115C341.573 46.7236 341.44 46.0446 341.44 45.2744C341.44 44.0622 341.734 43.1188 342.322 42.4443C342.91 41.7653 343.717 41.4258 344.742 41.4258C345.763 41.4258 346.563 41.7699 347.142 42.458C347.725 43.1416 348.017 44.0804 348.017 45.2744ZM342.151 45.2744C342.151 46.2952 342.375 47.0928 342.821 47.667C343.272 48.2367 343.908 48.5215 344.729 48.5215C345.549 48.5215 346.182 48.2367 346.629 47.667C347.08 47.0928 347.306 46.2952 347.306 45.2744C347.306 44.249 347.078 43.4538 346.622 42.8887C346.171 42.3236 345.535 42.041 344.715 42.041C343.895 42.041 343.261 42.3236 342.814 42.8887C342.372 43.4492 342.151 44.2445 342.151 45.2744ZM360.465 44.0439C360.465 45.083 360.257 45.917 359.843 46.5459C359.433 47.1748 358.874 47.4893 358.168 47.4893C357.762 47.4893 357.432 47.3662 357.177 47.1201C356.926 46.874 356.78 46.5391 356.739 46.1152H356.712C356.516 46.571 356.233 46.915 355.864 47.1475C355.495 47.3753 355.064 47.4893 354.572 47.4893C353.898 47.4893 353.376 47.2705 353.007 46.833C352.638 46.391 352.453 45.7734 352.453 44.9805C352.453 44.0599 352.727 43.3079 353.273 42.7246C353.825 42.1367 354.543 41.8428 355.427 41.8428C356.056 41.8428 356.707 41.9362 357.382 42.123L357.231 45.2949V45.5C357.231 45.974 357.311 46.3317 357.471 46.5732C357.63 46.8102 357.895 46.9287 358.264 46.9287C358.733 46.9287 359.116 46.6644 359.412 46.1357C359.713 45.6025 359.863 44.9098 359.863 44.0576C359.863 43.1735 359.683 42.3988 359.323 41.7334C358.963 41.068 358.448 40.5576 357.778 40.2021C357.113 39.8421 356.352 39.6621 355.495 39.6621C354.447 39.6621 353.522 39.89 352.72 40.3457C351.922 40.7969 351.307 41.4372 350.874 42.2666C350.446 43.096 350.231 44.0485 350.231 45.124C350.231 46.5915 350.612 47.7262 351.373 48.5283C352.134 49.3258 353.214 49.7246 354.613 49.7246C355.037 49.7246 355.465 49.6836 355.898 49.6016C356.336 49.5195 356.865 49.36 357.484 49.123V49.7998C356.559 50.1644 355.616 50.3467 354.654 50.3467C353.064 50.3467 351.824 49.891 350.936 48.9795C350.047 48.0635 349.603 46.792 349.603 45.165C349.603 43.9984 349.849 42.9502 350.341 42.0205C350.838 41.0863 351.537 40.3617 352.439 39.8467C353.346 39.3317 354.369 39.0742 355.509 39.0742C356.489 39.0742 357.354 39.277 358.106 39.6826C358.863 40.0882 359.444 40.6693 359.85 41.4258C360.26 42.1777 360.465 43.0505 360.465 44.0439ZM353.157 44.9668C353.157 45.6185 353.283 46.1084 353.533 46.4365C353.784 46.7646 354.18 46.9287 354.723 46.9287C355.885 46.9287 356.507 46.1403 356.589 44.5635L356.698 42.5742C356.338 42.4512 355.898 42.3896 355.379 42.3896C354.7 42.3896 354.16 42.6243 353.759 43.0938C353.358 43.5586 353.157 44.1829 353.157 44.9668ZM367 49L366.829 47.8242H366.774C366.401 48.3027 366.016 48.6423 365.619 48.8428C365.227 49.0387 364.762 49.1367 364.225 49.1367C363.495 49.1367 362.928 48.9499 362.522 48.5762C362.117 48.2025 361.914 47.6852 361.914 47.0244C361.914 46.2998 362.215 45.737 362.816 45.3359C363.423 44.9349 364.298 44.723 365.441 44.7002L366.856 44.6592V44.167C366.856 43.4606 366.713 42.9274 366.426 42.5674C366.139 42.2074 365.676 42.0273 365.038 42.0273C364.35 42.0273 363.637 42.2188 362.898 42.6016L362.646 42.0137C363.461 41.6309 364.268 41.4395 365.065 41.4395C365.881 41.4395 366.49 41.6514 366.891 42.0752C367.296 42.499 367.499 43.1598 367.499 44.0576V49H367ZM364.266 48.5215C365.059 48.5215 365.683 48.2959 366.139 47.8447C366.599 47.389 366.829 46.7578 366.829 45.9512V45.2197L365.53 45.2744C364.487 45.3245 363.742 45.4886 363.295 45.7666C362.853 46.04 362.632 46.4684 362.632 47.0518C362.632 47.5166 362.773 47.8789 363.056 48.1387C363.343 48.3939 363.746 48.5215 364.266 48.5215ZM372.838 41.4258C373.152 41.4258 373.49 41.4577 373.85 41.5215L373.72 42.1709C373.41 42.0934 373.089 42.0547 372.756 42.0547C372.122 42.0547 371.603 42.3236 371.197 42.8613C370.792 43.3991 370.589 44.0781 370.589 44.8984V49H369.912V41.5693H370.486L370.555 42.9092H370.603C370.908 42.3623 371.234 41.9795 371.58 41.7607C371.926 41.5374 372.346 41.4258 372.838 41.4258ZM377.329 48.5352C377.757 48.5352 378.131 48.4987 378.45 48.4258V48.9727C378.122 49.082 377.744 49.1367 377.315 49.1367C376.659 49.1367 376.174 48.9613 375.859 48.6104C375.549 48.2594 375.395 47.708 375.395 46.9561V42.1572H374.294V41.7607L375.395 41.4531L375.736 39.7715H376.085V41.5693H378.266V42.1572H376.085V46.8604C376.085 47.43 376.185 47.8516 376.386 48.125C376.586 48.3984 376.901 48.5352 377.329 48.5352ZM379.441 45.5V44.9395H382.688V45.5H379.441ZM387.494 41.4258C387.809 41.4258 388.146 41.4577 388.506 41.5215L388.376 42.1709C388.066 42.0934 387.745 42.0547 387.412 42.0547C386.779 42.0547 386.259 42.3236 385.854 42.8613C385.448 43.3991 385.245 44.0781 385.245 44.8984V49H384.568V41.5693H385.143L385.211 42.9092H385.259C385.564 42.3623 385.89 41.9795 386.236 41.7607C386.583 41.5374 387.002 41.4258 387.494 41.4258ZM390.7 49H390.023V41.5693H390.7V49ZM389.928 39.5049C389.928 39.0674 390.071 38.8486 390.358 38.8486C390.5 38.8486 390.609 38.9056 390.687 39.0195C390.769 39.1335 390.81 39.2952 390.81 39.5049C390.81 39.71 390.769 39.8717 390.687 39.9902C390.609 40.1087 390.5 40.168 390.358 40.168C390.071 40.168 389.928 39.9469 389.928 39.5049ZM398.377 49V44.1807C398.377 43.4333 398.22 42.891 397.905 42.5537C397.591 42.2119 397.103 42.041 396.442 42.041C395.554 42.041 394.902 42.2666 394.487 42.7178C394.077 43.1644 393.872 43.8913 393.872 44.8984V49H393.195V41.5693H393.77L393.899 42.5879H393.94C394.424 41.8132 395.283 41.4258 396.518 41.4258C398.204 41.4258 399.047 42.3304 399.047 44.1396V49H398.377ZM407.25 41.5693V42.041L405.712 42.1367C406.122 42.6471 406.327 43.2077 406.327 43.8184C406.327 44.5339 406.088 45.1149 405.609 45.5615C405.135 46.0036 404.497 46.2246 403.695 46.2246C403.358 46.2246 403.121 46.2109 402.984 46.1836C402.715 46.3249 402.51 46.4912 402.369 46.6826C402.228 46.874 402.157 47.0768 402.157 47.291C402.157 47.528 402.246 47.7012 402.424 47.8105C402.606 47.9199 402.909 47.9746 403.333 47.9746H404.632C405.438 47.9746 406.056 48.1387 406.484 48.4668C406.913 48.7904 407.127 49.2712 407.127 49.9092C407.127 50.693 406.808 51.2969 406.17 51.7207C405.536 52.1491 404.632 52.3633 403.456 52.3633C402.522 52.3633 401.797 52.1833 401.282 51.8232C400.772 51.4632 400.517 50.9619 400.517 50.3193C400.517 49.8089 400.674 49.3851 400.988 49.0479C401.307 48.7106 401.738 48.4805 402.28 48.3574C402.057 48.2617 401.877 48.1273 401.74 47.9541C401.608 47.7764 401.542 47.5736 401.542 47.3457C401.542 46.849 401.859 46.4115 402.492 46.0332C402.059 45.8555 401.722 45.5775 401.48 45.1992C401.239 44.8164 401.118 44.3789 401.118 43.8867C401.118 43.1439 401.353 42.5492 401.822 42.1025C402.296 41.6514 402.934 41.4258 403.736 41.4258C404.224 41.4258 404.602 41.4736 404.871 41.5693H407.25ZM401.234 50.2578C401.234 51.2786 401.993 51.7891 403.511 51.7891C405.461 51.7891 406.437 51.167 406.437 49.9229C406.437 49.4762 406.284 49.1527 405.979 48.9521C405.673 48.7516 405.179 48.6514 404.495 48.6514H403.278C401.916 48.6514 401.234 49.1868 401.234 50.2578ZM401.802 43.8867C401.802 44.4609 401.975 44.9076 402.321 45.2266C402.672 45.541 403.139 45.6982 403.723 45.6982C404.342 45.6982 404.816 45.541 405.145 45.2266C405.477 44.9121 405.644 44.4564 405.644 43.8594C405.644 43.2259 405.473 42.752 405.131 42.4375C404.794 42.1185 404.32 41.959 403.709 41.959C403.117 41.959 402.649 42.1299 402.308 42.4717C401.97 42.8089 401.802 43.2806 401.802 43.8867ZM413.389 47.0654C413.389 47.7308 413.136 48.2435 412.63 48.6035C412.124 48.959 411.406 49.1367 410.477 49.1367C409.483 49.1367 408.695 48.984 408.111 48.6787V47.9473C408.859 48.321 409.647 48.5078 410.477 48.5078C411.21 48.5078 411.766 48.387 412.145 48.1455C412.527 47.8994 412.719 47.5736 412.719 47.168C412.719 46.7943 412.566 46.4798 412.261 46.2246C411.96 45.9694 411.463 45.7188 410.771 45.4727C410.028 45.2038 409.506 44.9736 409.205 44.7822C408.904 44.5863 408.676 44.3675 408.521 44.126C408.371 43.8799 408.296 43.5814 408.296 43.2305C408.296 42.6745 408.528 42.2347 408.993 41.9111C409.463 41.5876 410.117 41.4258 410.955 41.4258C411.757 41.4258 412.518 41.5762 413.238 41.877L412.985 42.4922C412.256 42.1914 411.579 42.041 410.955 42.041C410.349 42.041 409.868 42.1413 409.513 42.3418C409.157 42.5423 408.979 42.8203 408.979 43.1758C408.979 43.5632 409.116 43.873 409.39 44.1055C409.668 44.3379 410.208 44.5977 411.01 44.8848C411.68 45.1263 412.167 45.3451 412.473 45.541C412.778 45.7324 413.006 45.9512 413.156 46.1973C413.311 46.4434 413.389 46.7327 413.389 47.0654ZM415.166 48.4668C415.166 48.0202 415.348 47.7969 415.713 47.7969C416.087 47.7969 416.273 48.0202 416.273 48.4668C416.273 48.9134 416.087 49.1367 415.713 49.1367C415.348 49.1367 415.166 48.9134 415.166 48.4668ZM421.564 41.4258C421.879 41.4258 422.216 41.4577 422.576 41.5215L422.446 42.1709C422.136 42.0934 421.815 42.0547 421.482 42.0547C420.849 42.0547 420.329 42.3236 419.924 42.8613C419.518 43.3991 419.315 44.0781 419.315 44.8984V49H418.639V41.5693H419.213L419.281 42.9092H419.329C419.634 42.3623 419.96 41.9795 420.307 41.7607C420.653 41.5374 421.072 41.4258 421.564 41.4258ZM424.682 41.5693V46.3818C424.682 47.1292 424.839 47.6738 425.153 48.0156C425.468 48.3529 425.955 48.5215 426.616 48.5215C427.5 48.5215 428.15 48.2982 428.564 47.8516C428.984 47.4049 429.193 46.6781 429.193 45.6709V41.5693H429.863V49H429.289L429.166 47.9746H429.125C428.642 48.7493 427.783 49.1367 426.548 49.1367C424.857 49.1367 424.012 48.2321 424.012 46.4229V41.5693H424.682Z" fill="black"/>
<g opacity="0.5">
<path d="M298.334 38.4026H311.667C312.584 38.4026 313.334 39.1495 313.334 40.0623V50.0209C313.334 50.9338 312.584 51.6807 311.667 51.6807H298.334C297.417 51.6807 296.667 50.9338 296.667 50.0209V40.0623C296.667 39.1495 297.417 38.4026 298.334 38.4026Z" fill="#020F59" stroke="#020F59" stroke-linecap="round" stroke-linejoin="round"/>
<path d="M313.334 40.0623L305 45.8714L296.667 40.0623" stroke="white" stroke-linecap="round" stroke-linejoin="round"/>
</g>
<path d="M330.811 27L327.085 17.7715H327.03C327.067 18.3366 327.085 18.9154 327.085 19.5078V27H326.415V17.0059H327.495L331.036 25.7969H331.077L334.618 17.0059H335.671V27H334.967V19.4258C334.967 18.8971 334.994 18.3503 335.049 17.7852H334.994L331.255 27H330.811ZM344.476 23.2744C344.476 24.4867 344.182 25.4346 343.594 26.1182C343.006 26.7972 342.195 27.1367 341.16 27.1367C340.508 27.1367 339.934 26.9795 339.438 26.665C338.941 26.3506 338.56 25.8994 338.296 25.3115C338.032 24.7236 337.899 24.0446 337.899 23.2744C337.899 22.0622 338.193 21.1188 338.781 20.4443C339.369 19.7653 340.176 19.4258 341.201 19.4258C342.222 19.4258 343.022 19.7699 343.601 20.458C344.184 21.1416 344.476 22.0804 344.476 23.2744ZM338.61 23.2744C338.61 24.2952 338.834 25.0928 339.28 25.667C339.731 26.2367 340.367 26.5215 341.188 26.5215C342.008 26.5215 342.641 26.2367 343.088 25.667C343.539 25.0928 343.765 24.2952 343.765 23.2744C343.765 22.249 343.537 21.4538 343.081 20.8887C342.63 20.3236 341.994 20.041 341.174 20.041C340.354 20.041 339.72 20.3236 339.273 20.8887C338.831 21.4492 338.61 22.2445 338.61 23.2744ZM349.5 27.1367C348.438 27.1367 347.606 26.8018 347.005 26.1318C346.403 25.4619 346.103 24.5277 346.103 23.3291C346.103 22.0986 346.415 21.1416 347.039 20.458C347.663 19.7699 348.518 19.4258 349.603 19.4258C350.245 19.4258 350.86 19.5374 351.448 19.7607L351.264 20.3623C350.621 20.1481 350.063 20.041 349.589 20.041C348.677 20.041 347.987 20.3236 347.518 20.8887C347.048 21.4492 346.813 22.2581 346.813 23.3154C346.813 24.318 347.048 25.1042 347.518 25.6738C347.987 26.2389 348.643 26.5215 349.486 26.5215C350.161 26.5215 350.787 26.4007 351.366 26.1592V26.7881C350.892 27.0205 350.27 27.1367 349.5 27.1367ZM357.225 19.5693H358.065L354.736 23.165L358.305 27H357.396L353.882 23.2334V27H353.191V19.5693H353.882V23.1787L357.225 19.5693ZM365.318 21.3604C365.318 21.8298 365.202 22.1989 364.97 22.4678C364.737 22.7321 364.359 22.9167 363.835 23.0215V23.0693C364.432 23.1377 364.863 23.3109 365.127 23.5889C365.396 23.8623 365.53 24.2565 365.53 24.7715C365.53 25.487 365.293 26.0384 364.819 26.4258C364.35 26.8086 363.662 27 362.755 27H359.617V19.5693H362.769C363.616 19.5693 364.252 19.722 364.676 20.0273C365.104 20.3327 365.318 20.777 365.318 21.3604ZM364.812 24.7578C364.812 23.8464 364.113 23.3906 362.714 23.3906H360.294V26.3574H362.81C364.145 26.3574 364.812 25.8242 364.812 24.7578ZM364.601 21.415C364.601 20.9821 364.446 20.6745 364.136 20.4922C363.826 20.3053 363.361 20.2119 362.741 20.2119H360.294V22.7549H362.659C363.352 22.7549 363.849 22.6478 364.149 22.4336C364.45 22.2194 364.601 21.8799 364.601 21.415ZM372.059 27L371.888 25.8242H371.833C371.459 26.3027 371.074 26.6423 370.678 26.8428C370.286 27.0387 369.821 27.1367 369.283 27.1367C368.554 27.1367 367.987 26.9499 367.581 26.5762C367.175 26.2025 366.973 25.6852 366.973 25.0244C366.973 24.2998 367.273 23.737 367.875 23.3359C368.481 22.9349 369.356 22.723 370.5 22.7002L371.915 22.6592V22.167C371.915 21.4606 371.771 20.9274 371.484 20.5674C371.197 20.2074 370.735 20.0273 370.097 20.0273C369.409 20.0273 368.695 20.2188 367.957 20.6016L367.704 20.0137C368.52 19.6309 369.326 19.4395 370.124 19.4395C370.94 19.4395 371.548 19.6514 371.949 20.0752C372.355 20.499 372.558 21.1598 372.558 22.0576V27H372.059ZM369.324 26.5215C370.117 26.5215 370.742 26.2959 371.197 25.8447C371.658 25.389 371.888 24.7578 371.888 23.9512V23.2197L370.589 23.2744C369.545 23.3245 368.8 23.4886 368.354 23.7666C367.911 24.04 367.69 24.4684 367.69 25.0518C367.69 25.5166 367.832 25.8789 368.114 26.1387C368.401 26.3939 368.805 26.5215 369.324 26.5215ZM375.743 25.373L375.825 25.5166C375.483 26.7243 375.087 27.8203 374.636 28.8047H374.191C374.542 27.5514 374.793 26.4076 374.943 25.373H375.743ZM384.486 21.415C385.635 21.415 386.496 21.6338 387.07 22.0713C387.645 22.5042 387.932 23.1901 387.932 24.1289C387.932 25.0495 387.647 25.7581 387.077 26.2549C386.512 26.7516 385.701 27 384.644 27H381.786V17.0059H387.398V17.6621H382.483V21.415H384.486ZM382.483 26.3848H384.527C385.425 26.3848 386.09 26.2048 386.523 25.8447C386.956 25.4801 387.173 24.9082 387.173 24.1289C387.173 23.377 386.954 22.8392 386.517 22.5156C386.079 22.1921 385.37 22.0303 384.391 22.0303H382.483V26.3848ZM396.101 23.2744C396.101 24.4867 395.807 25.4346 395.219 26.1182C394.631 26.7972 393.82 27.1367 392.785 27.1367C392.133 27.1367 391.559 26.9795 391.062 26.665C390.566 26.3506 390.185 25.8994 389.921 25.3115C389.657 24.7236 389.524 24.0446 389.524 23.2744C389.524 22.0622 389.818 21.1188 390.406 20.4443C390.994 19.7653 391.801 19.4258 392.826 19.4258C393.847 19.4258 394.647 19.7699 395.226 20.458C395.809 21.1416 396.101 22.0804 396.101 23.2744ZM390.235 23.2744C390.235 24.2952 390.459 25.0928 390.905 25.667C391.356 26.2367 391.992 26.5215 392.812 26.5215C393.633 26.5215 394.266 26.2367 394.713 25.667C395.164 25.0928 395.39 24.2952 395.39 23.2744C395.39 22.249 395.162 21.4538 394.706 20.8887C394.255 20.3236 393.619 20.041 392.799 20.041C391.979 20.041 391.345 20.3236 390.898 20.8887C390.456 21.4492 390.235 22.2445 390.235 23.2744ZM403.299 27H402.629V20.1982H399.997C399.86 21.9984 399.692 23.3724 399.491 24.3203C399.295 25.2637 399.04 25.9587 398.726 26.4053C398.416 26.8473 398.012 27.0684 397.516 27.0684C397.338 27.0684 397.183 27.0501 397.051 27.0137V26.3984C397.137 26.4258 397.26 26.4395 397.42 26.4395C397.935 26.4395 398.35 25.8971 398.664 24.8125C398.983 23.7233 399.225 21.9756 399.389 19.5693H403.299V27ZM406.464 22.7002H409.082C410.827 22.7002 411.7 23.3861 411.7 24.7578C411.7 25.4642 411.456 26.0156 410.969 26.4121C410.481 26.804 409.782 27 408.87 27H405.787V19.5693H406.464V22.7002ZM406.464 23.3428V26.3574H408.979C409.627 26.3574 410.121 26.2207 410.463 25.9473C410.809 25.6738 410.982 25.2728 410.982 24.7441C410.982 24.252 410.83 23.8965 410.524 23.6777C410.219 23.4544 409.69 23.3428 408.938 23.3428H406.464ZM418.816 26.3574H422.521V19.5693H423.198V27H413.758V19.5693H414.435V26.3574H418.14V19.5693H418.816V26.3574ZM431.839 23.2744C431.839 24.4867 431.545 25.4346 430.957 26.1182C430.369 26.7972 429.558 27.1367 428.523 27.1367C427.872 27.1367 427.298 26.9795 426.801 26.665C426.304 26.3506 425.924 25.8994 425.659 25.3115C425.395 24.7236 425.263 24.0446 425.263 23.2744C425.263 22.0622 425.557 21.1188 426.145 20.4443C426.732 19.7653 427.539 19.4258 428.564 19.4258C429.585 19.4258 430.385 19.7699 430.964 20.458C431.547 21.1416 431.839 22.0804 431.839 23.2744ZM425.974 23.2744C425.974 24.2952 426.197 25.0928 426.644 25.667C427.095 26.2367 427.73 26.5215 428.551 26.5215C429.371 26.5215 430.005 26.2367 430.451 25.667C430.902 25.0928 431.128 24.2952 431.128 23.2744C431.128 22.249 430.9 21.4538 430.444 20.8887C429.993 20.3236 429.357 20.041 428.537 20.041C427.717 20.041 427.083 20.3236 426.637 20.8887C426.195 21.4492 425.974 22.2445 425.974 23.2744ZM434.539 19.5693V24.9424L434.498 26.3438L438.907 19.5693H439.81V27H439.16V21.6611L439.188 20.2256L434.778 27H433.896V19.5693H434.539ZM436.856 18.5166C436.177 18.5166 435.66 18.3662 435.305 18.0654C434.949 17.7601 434.742 17.2702 434.683 16.5957H435.284C435.353 17.097 435.507 17.4525 435.749 17.6621C435.991 17.8672 436.364 17.9697 436.87 17.9697C437.371 17.9697 437.743 17.8626 437.984 17.6484C438.23 17.4342 438.381 17.0833 438.436 16.5957H439.037C438.941 17.8763 438.215 18.5166 436.856 18.5166ZM452.702 27H451.752L446.81 21.9072V27H446.112V17.0059H446.81V21.8457L451.615 17.0059H452.538L447.705 21.8457L452.702 27ZM454.596 19.5693V24.9424L454.555 26.3438L458.964 19.5693H459.866V27H459.217V21.6611L459.244 20.2256L454.835 27H453.953V19.5693H454.596ZM465.328 27.1367C464.266 27.1367 463.435 26.8018 462.833 26.1318C462.231 25.4619 461.931 24.5277 461.931 23.3291C461.931 22.0986 462.243 21.1416 462.867 20.458C463.492 19.7699 464.346 19.4258 465.431 19.4258C466.073 19.4258 466.688 19.5374 467.276 19.7607L467.092 20.3623C466.449 20.1481 465.891 20.041 465.417 20.041C464.506 20.041 463.815 20.3236 463.346 20.8887C462.876 21.4492 462.642 22.2581 462.642 23.3154C462.642 24.318 462.876 25.1042 463.346 25.6738C463.815 26.2389 464.471 26.5215 465.314 26.5215C465.989 26.5215 466.616 26.4007 467.194 26.1592V26.7881C466.72 27.0205 466.098 27.1367 465.328 27.1367ZM474.16 27H473.49V20.1982H470.858C470.722 21.9984 470.553 23.3724 470.353 24.3203C470.157 25.2637 469.901 25.9587 469.587 26.4053C469.277 26.8473 468.874 27.0684 468.377 27.0684C468.199 27.0684 468.044 27.0501 467.912 27.0137V26.3984C467.999 26.4258 468.122 26.4395 468.281 26.4395C468.796 26.4395 469.211 25.8971 469.525 24.8125C469.844 23.7233 470.086 21.9756 470.25 19.5693H474.16V27ZM482.794 23.2744C482.794 24.4867 482.5 25.4346 481.912 26.1182C481.324 26.7972 480.513 27.1367 479.479 27.1367C478.827 27.1367 478.253 26.9795 477.756 26.665C477.259 26.3506 476.879 25.8994 476.614 25.3115C476.35 24.7236 476.218 24.0446 476.218 23.2744C476.218 22.0622 476.512 21.1188 477.1 20.4443C477.688 19.7653 478.494 19.4258 479.52 19.4258C480.54 19.4258 481.34 19.7699 481.919 20.458C482.502 21.1416 482.794 22.0804 482.794 23.2744ZM476.929 23.2744C476.929 24.2952 477.152 25.0928 477.599 25.667C478.05 26.2367 478.686 26.5215 479.506 26.5215C480.326 26.5215 480.96 26.2367 481.406 25.667C481.857 25.0928 482.083 24.2952 482.083 23.2744C482.083 22.249 481.855 21.4538 481.399 20.8887C480.948 20.3236 480.312 20.041 479.492 20.041C478.672 20.041 478.038 20.3236 477.592 20.8887C477.15 21.4492 476.929 22.2445 476.929 23.2744ZM490.553 21.3604C490.553 21.8298 490.437 22.1989 490.204 22.4678C489.972 22.7321 489.593 22.9167 489.069 23.0215V23.0693C489.666 23.1377 490.097 23.3109 490.361 23.5889C490.63 23.8623 490.765 24.2565 490.765 24.7715C490.765 25.487 490.528 26.0384 490.054 26.4258C489.584 26.8086 488.896 27 487.989 27H484.852V19.5693H488.003C488.851 19.5693 489.486 19.722 489.91 20.0273C490.339 20.3327 490.553 20.777 490.553 21.3604ZM490.047 24.7578C490.047 23.8464 489.347 23.3906 487.948 23.3906H485.528V26.3574H488.044C489.379 26.3574 490.047 25.8242 490.047 24.7578ZM489.835 21.415C489.835 20.9821 489.68 20.6745 489.37 20.4922C489.06 20.3053 488.595 20.2119 487.976 20.2119H485.528V22.7549H487.894C488.586 22.7549 489.083 22.6478 489.384 22.4336C489.685 22.2194 489.835 21.8799 489.835 21.415ZM495.748 27.1367C494.686 27.1367 493.854 26.8018 493.253 26.1318C492.651 25.4619 492.351 24.5277 492.351 23.3291C492.351 22.0986 492.663 21.1416 493.287 20.458C493.911 19.7699 494.766 19.4258 495.851 19.4258C496.493 19.4258 497.108 19.5374 497.696 19.7607L497.512 20.3623C496.869 20.1481 496.311 20.041 495.837 20.041C494.925 20.041 494.235 20.3236 493.766 20.8887C493.296 21.4492 493.062 22.2581 493.062 23.3154C493.062 24.318 493.296 25.1042 493.766 25.6738C494.235 26.2389 494.891 26.5215 495.734 26.5215C496.409 26.5215 497.035 26.4007 497.614 26.1592V26.7881C497.14 27.0205 496.518 27.1367 495.748 27.1367ZM503.473 19.5693H504.313L500.984 23.165L504.553 27H503.644L500.13 23.2334V27H499.439V19.5693H500.13V23.1787L503.473 19.5693ZM506.508 19.5693V24.9424L506.467 26.3438L510.876 19.5693H511.778V27H511.129V21.6611L511.156 20.2256L506.747 27H505.865V19.5693H506.508ZM514.916 19.5693V24.9424L514.875 26.3438L519.284 19.5693H520.187V27H519.537V21.6611L519.564 20.2256L515.155 27H514.273V19.5693H514.916ZM517.233 18.5166C516.554 18.5166 516.037 18.3662 515.682 18.0654C515.326 17.7601 515.119 17.2702 515.06 16.5957H515.661C515.729 17.097 515.884 17.4525 516.126 17.6621C516.368 17.8672 516.741 17.9697 517.247 17.9697C517.748 17.9697 518.12 17.8626 518.361 17.6484C518.607 17.4342 518.758 17.0833 518.812 16.5957H519.414C519.318 17.8763 518.591 18.5166 517.233 18.5166ZM526.995 27H526.318V19.5693H532.245V27H531.568V20.2119H526.995V27ZM537.741 27.1367C536.661 27.1367 535.818 26.804 535.212 26.1387C534.61 25.4733 534.31 24.5413 534.31 23.3428C534.31 22.1579 534.601 21.21 535.185 20.499C535.768 19.7835 536.554 19.4258 537.543 19.4258C538.418 19.4258 539.108 19.7311 539.614 20.3418C540.12 20.9525 540.373 21.7819 540.373 22.8301V23.377H535.021C535.03 24.3978 535.267 25.1771 535.731 25.7148C536.201 26.2526 536.871 26.5215 537.741 26.5215C538.165 26.5215 538.536 26.4919 538.855 26.4326C539.179 26.3734 539.587 26.2458 540.079 26.0498V26.665C539.66 26.8473 539.272 26.9704 538.917 27.0342C538.562 27.1025 538.17 27.1367 537.741 27.1367ZM537.543 20.0273C536.827 20.0273 536.253 20.2643 535.82 20.7383C535.387 21.2077 535.134 21.8867 535.062 22.7754H539.655C539.655 21.9141 539.468 21.2419 539.095 20.7588C538.721 20.2712 538.204 20.0273 537.543 20.0273ZM545.603 27.1367C544.459 27.1367 543.625 26.7083 543.101 25.8516H543.053L543.073 26.4258C543.091 26.763 543.101 27.1322 543.101 27.5332V30.3633H542.424V19.5693H542.998L543.128 20.6289H543.169C543.679 19.8268 544.495 19.4258 545.616 19.4258C546.619 19.4258 547.382 19.7562 547.906 20.417C548.435 21.0732 548.699 22.0303 548.699 23.2881C548.699 24.5094 548.421 25.4574 547.865 26.1318C547.314 26.8018 546.56 27.1367 545.603 27.1367ZM545.589 26.5352C546.35 26.5352 546.938 26.2526 547.353 25.6875C547.772 25.1224 547.981 24.3317 547.981 23.3154C547.981 21.1325 547.193 20.041 545.616 20.041C544.75 20.041 544.115 20.2803 543.709 20.7588C543.303 21.2327 543.101 22.0075 543.101 23.083V23.3018C543.101 24.4639 543.294 25.2933 543.682 25.79C544.074 26.2868 544.709 26.5352 545.589 26.5352ZM553.765 27.1367C552.685 27.1367 551.841 26.804 551.235 26.1387C550.634 25.4733 550.333 24.5413 550.333 23.3428C550.333 22.1579 550.625 21.21 551.208 20.499C551.791 19.7835 552.577 19.4258 553.566 19.4258C554.441 19.4258 555.132 19.7311 555.638 20.3418C556.144 20.9525 556.396 21.7819 556.396 22.8301V23.377H551.044C551.053 24.3978 551.29 25.1771 551.755 25.7148C552.224 26.2526 552.894 26.5215 553.765 26.5215C554.188 26.5215 554.56 26.4919 554.879 26.4326C555.202 26.3734 555.61 26.2458 556.103 26.0498V26.665C555.683 26.8473 555.296 26.9704 554.94 27.0342C554.585 27.1025 554.193 27.1367 553.765 27.1367ZM553.566 20.0273C552.851 20.0273 552.277 20.2643 551.844 20.7383C551.411 21.2077 551.158 21.8867 551.085 22.7754H555.679C555.679 21.9141 555.492 21.2419 555.118 20.7588C554.744 20.2712 554.227 20.0273 553.566 20.0273ZM557.203 19.5693H557.9L559.473 23.7393C559.951 25.0199 560.254 25.8835 560.382 26.3301H560.423C560.614 25.7422 560.926 24.8649 561.359 23.6982L562.932 19.5693H563.629L560.3 28.2031C560.031 28.9049 559.805 29.3789 559.623 29.625C559.441 29.8711 559.227 30.0557 558.98 30.1787C558.739 30.3018 558.445 30.3633 558.099 30.3633C557.839 30.3633 557.549 30.3154 557.23 30.2197V29.6318C557.495 29.7048 557.78 29.7412 558.085 29.7412C558.317 29.7412 558.522 29.6865 558.7 29.5771C558.878 29.4678 559.037 29.2969 559.179 29.0645C559.325 28.8366 559.491 28.472 559.678 27.9707C559.869 27.474 559.992 27.1504 560.047 27L557.203 19.5693ZM570.014 27H569.344V20.1982H566.712C566.575 21.9984 566.407 23.3724 566.206 24.3203C566.01 25.2637 565.755 25.9587 565.44 26.4053C565.131 26.8473 564.727 27.0684 564.23 27.0684C564.053 27.0684 563.898 27.0501 563.766 27.0137V26.3984C563.852 26.4258 563.975 26.4395 564.135 26.4395C564.65 26.4395 565.064 25.8971 565.379 24.8125C565.698 23.7233 565.939 21.9756 566.104 19.5693H570.014V27ZM578.647 23.2744C578.647 24.4867 578.354 25.4346 577.766 26.1182C577.178 26.7972 576.367 27.1367 575.332 27.1367C574.68 27.1367 574.106 26.9795 573.609 26.665C573.113 26.3506 572.732 25.8994 572.468 25.3115C572.203 24.7236 572.071 24.0446 572.071 23.2744C572.071 22.0622 572.365 21.1188 572.953 20.4443C573.541 19.7653 574.348 19.4258 575.373 19.4258C576.394 19.4258 577.194 19.7699 577.772 20.458C578.356 21.1416 578.647 22.0804 578.647 23.2744ZM572.782 23.2744C572.782 24.2952 573.006 25.0928 573.452 25.667C573.903 26.2367 574.539 26.5215 575.359 26.5215C576.18 26.5215 576.813 26.2367 577.26 25.667C577.711 25.0928 577.937 24.2952 577.937 23.2744C577.937 22.249 577.709 21.4538 577.253 20.8887C576.802 20.3236 576.166 20.041 575.346 20.041C574.525 20.041 573.892 20.3236 573.445 20.8887C573.003 21.4492 572.782 22.2445 572.782 23.2744ZM584.738 19.5693H585.579L582.25 23.165L585.818 27H584.909L581.396 23.2334V27H580.705V19.5693H581.396V23.1787L584.738 19.5693ZM587.903 25.373L587.985 25.5166C587.644 26.7243 587.247 27.8203 586.796 28.8047H586.352C586.702 27.5514 586.953 26.4076 587.104 25.373H587.903ZM596.202 20.9912C597.269 20.9912 598.107 21.2487 598.718 21.7637C599.333 22.2786 599.641 22.9873 599.641 23.8896C599.641 24.915 599.322 25.7126 598.684 26.2822C598.046 26.8519 597.166 27.1367 596.045 27.1367C595.548 27.1367 595.076 27.0889 594.63 26.9932C594.183 26.8929 593.81 26.7516 593.509 26.5693V25.8652C594.001 26.1159 594.438 26.2913 594.821 26.3916C595.204 26.4873 595.612 26.5352 596.045 26.5352C596.92 26.5352 597.622 26.305 598.15 25.8447C598.679 25.3799 598.943 24.7533 598.943 23.9648C598.943 23.222 598.686 22.6387 598.171 22.2148C597.656 21.791 596.956 21.5791 596.072 21.5791C595.48 21.5791 594.86 21.668 594.213 21.8457L593.803 21.5791L594.199 17.0059H599.012V17.6621H594.842L594.534 21.1895C595.245 21.0573 595.801 20.9912 596.202 20.9912ZM601.158 23.5V22.9395H604.405V23.5H601.158ZM607.324 27L611.439 17.6621H605.786V17.0059H612.253V17.5049L608.124 27H607.324ZM617.25 27.1367C616.188 27.1367 615.356 26.8018 614.755 26.1318C614.153 25.4619 613.853 24.5277 613.853 23.3291C613.853 22.0986 614.165 21.1416 614.789 20.458C615.413 19.7699 616.268 19.4258 617.353 19.4258C617.995 19.4258 618.61 19.5374 619.198 19.7607L619.014 20.3623C618.371 20.1481 617.813 20.041 617.339 20.041C616.427 20.041 615.737 20.3236 615.268 20.8887C614.798 21.4492 614.563 22.2581 614.563 23.3154C614.563 24.318 614.798 25.1042 615.268 25.6738C615.737 26.2389 616.393 26.5215 617.236 26.5215C617.911 26.5215 618.537 26.4007 619.116 26.1592V26.7881C618.642 27.0205 618.02 27.1367 617.25 27.1367ZM624.359 27H623.689V19.7197C623.689 19.0589 623.717 18.373 623.771 17.6621C623.703 17.7305 623.632 17.7965 623.56 17.8604C623.487 17.9242 622.783 18.4779 621.447 19.5215L621.058 19.0361L623.771 17.0059H624.359V27Z" fill="black"/>
<g opacity="0.5">
<path d="M312.5 20.3333C312.5 26.1666 305 31.1666 305 31.1666C305 31.1666 297.5 26.1666 297.5 20.3333C297.5 18.3441 298.29 16.4365 299.697 15.03C301.103 13.6234 303.011 12.8333 305 12.8333C306.989 12.8333 308.897 13.6234 310.303 15.03C311.71 16.4365 312.5 18.3441 312.5 20.3333Z" fill="#020F59"/>
<path d="M305 22.8333C306.381 22.8333 307.5 21.714 307.5 20.3333C307.5 18.9525 306.381 17.8333 305 17.8333C303.619 17.8333 302.5 18.9525 302.5 20.3333C302.5 21.714 303.619 22.8333 305 22.8333Z" fill="#ECEFF3" stroke="#020F59" stroke-linecap="round" stroke-linejoin="round"/>
</g>
<path d="M1137.54 43.7773H1140.51V44.3379H1137.54V47.291H1136.98V44.3379H1134.03V43.7773H1136.98V40.8105H1137.54V43.7773ZM1143.55 49L1147.67 39.6621H1142.01V39.0059H1148.48V39.5049L1144.35 49H1143.55ZM1153.46 45.165C1153.46 43.9574 1153.64 42.8271 1153.99 41.7744C1154.35 40.7217 1154.86 39.7988 1155.52 39.0059H1156.29C1155.62 39.8353 1155.1 40.7764 1154.74 41.8291C1154.38 42.8773 1154.2 43.9847 1154.2 45.1514C1154.2 47.3525 1154.89 49.3737 1156.28 51.2148H1155.52C1154.85 50.4401 1154.34 49.5355 1153.99 48.501C1153.64 47.4665 1153.46 46.3545 1153.46 45.165ZM1163.8 43.2441C1163.8 44.5566 1163.63 45.6549 1163.28 46.5391C1162.94 47.4232 1162.44 48.0771 1161.78 48.501C1161.12 48.9248 1160.32 49.1367 1159.39 49.1367C1158.92 49.1367 1158.48 49.0775 1158.08 48.959V48.3711C1158.27 48.4349 1158.51 48.485 1158.78 48.5215C1159.06 48.5534 1159.27 48.5693 1159.42 48.5693C1160.54 48.5693 1161.43 48.1637 1162.06 47.3525C1162.7 46.5368 1163.06 45.3496 1163.13 43.791H1163.05C1162.72 44.2285 1162.32 44.5658 1161.86 44.8027C1161.4 45.0352 1160.92 45.1514 1160.42 45.1514C1159.49 45.1514 1158.77 44.8962 1158.25 44.3857C1157.73 43.8753 1157.48 43.1507 1157.48 42.2119C1157.48 41.2093 1157.76 40.3981 1158.32 39.7783C1158.89 39.1585 1159.63 38.8486 1160.54 38.8486C1161.2 38.8486 1161.77 39.0218 1162.26 39.3682C1162.75 39.71 1163.13 40.2135 1163.4 40.8789C1163.67 41.5443 1163.8 42.3327 1163.8 43.2441ZM1160.54 39.4502C1159.82 39.4502 1159.24 39.694 1158.82 40.1816C1158.39 40.6647 1158.17 41.3278 1158.17 42.1709C1158.17 42.9639 1158.37 43.5654 1158.77 43.9756C1159.17 44.3857 1159.73 44.5908 1160.47 44.5908C1160.93 44.5908 1161.36 44.4883 1161.76 44.2832C1162.16 44.0781 1162.47 43.807 1162.71 43.4697C1162.94 43.1279 1163.06 42.7816 1163.06 42.4307C1163.06 41.8975 1162.95 41.3984 1162.74 40.9336C1162.53 40.4688 1162.23 40.1064 1161.85 39.8467C1161.47 39.5824 1161.04 39.4502 1160.54 39.4502ZM1167 49L1171.11 39.6621H1165.46V39.0059H1171.93V39.5049L1167.8 49H1167ZM1175 49L1179.11 39.6621H1173.46V39.0059H1179.93V39.5049L1175.8 49H1175ZM1183.96 45.165C1183.96 46.3636 1183.78 47.4801 1183.43 48.5146C1183.07 49.5492 1182.57 50.4492 1181.9 51.2148H1181.14C1182.53 49.3737 1183.22 47.3525 1183.22 45.1514C1183.22 43.9801 1183.04 42.8704 1182.68 41.8223C1182.32 40.7695 1181.8 39.8307 1181.13 39.0059H1181.9C1182.57 39.8034 1183.08 40.7308 1183.43 41.7881C1183.78 42.8408 1183.96 43.9665 1183.96 45.165ZM1192.14 38.835C1192.99 38.835 1193.67 39.0514 1194.19 39.4844C1194.71 39.9173 1194.96 40.5029 1194.96 41.2412C1194.96 41.7516 1194.8 42.2028 1194.48 42.5947C1194.16 42.9867 1193.64 43.349 1192.92 43.6816C1193.8 44.0417 1194.41 44.4359 1194.77 44.8643C1195.12 45.2926 1195.3 45.8122 1195.3 46.4229C1195.3 47.2477 1195.01 47.9062 1194.43 48.3984C1193.86 48.8906 1193.08 49.1367 1192.11 49.1367C1191.11 49.1367 1190.33 48.9066 1189.8 48.4463C1189.26 47.986 1188.99 47.3161 1188.99 46.4365C1188.99 45.8395 1189.18 45.3154 1189.56 44.8643C1189.94 44.4131 1190.52 44.028 1191.31 43.709C1190.58 43.3626 1190.06 42.998 1189.76 42.6152C1189.46 42.2279 1189.31 41.7653 1189.31 41.2275C1189.31 40.749 1189.43 40.3298 1189.67 39.9697C1189.92 39.6051 1190.25 39.3249 1190.69 39.1289C1191.12 38.9329 1191.61 38.835 1192.14 38.835ZM1189.69 46.5391C1189.69 47.168 1189.9 47.6556 1190.32 48.002C1190.75 48.3483 1191.35 48.5215 1192.11 48.5215C1192.86 48.5215 1193.46 48.3392 1193.92 47.9746C1194.37 47.6055 1194.6 47.1064 1194.6 46.4775C1194.6 45.9124 1194.42 45.4544 1194.06 45.1035C1193.71 44.748 1193.02 44.3766 1192 43.9893C1191.16 44.3128 1190.56 44.6706 1190.21 45.0625C1189.86 45.4544 1189.69 45.9466 1189.69 46.5391ZM1192.13 39.4502C1191.49 39.4502 1190.97 39.6097 1190.58 39.9287C1190.19 40.2432 1190 40.6761 1190 41.2275C1190 41.5465 1190.07 41.8291 1190.21 42.0752C1190.35 42.3167 1190.56 42.5378 1190.83 42.7383C1191.1 42.9342 1191.56 43.1644 1192.2 43.4287C1192.94 43.1416 1193.47 42.8249 1193.8 42.4785C1194.12 42.1322 1194.28 41.7152 1194.28 41.2275C1194.28 40.6807 1194.09 40.2477 1193.7 39.9287C1193.32 39.6097 1192.79 39.4502 1192.13 39.4502ZM1203.96 46.4502H1202.24V49H1201.6V46.4502H1196.46V45.9922L1201.41 38.9512H1202.24V45.8623H1203.96V46.4502ZM1201.6 45.8623V43.0049C1201.6 41.6286 1201.63 40.4733 1201.69 39.5391H1201.64C1201.55 39.7077 1201.27 40.1361 1200.8 40.8242L1197.27 45.8623H1201.6ZM1208.82 49H1208.15V41.7197C1208.15 41.0589 1208.18 40.373 1208.23 39.6621C1208.17 39.7305 1208.09 39.7965 1208.02 39.8604C1207.95 39.9242 1207.24 40.4779 1205.91 41.5215L1205.52 41.0361L1208.23 39.0059H1208.82V49ZM1212.79 45.5V44.9395H1216.03V45.5H1212.79ZM1223.7 49H1217.44V48.3984L1220.1 45.623C1220.85 44.8483 1221.37 44.2559 1221.67 43.8457C1221.97 43.4355 1222.19 43.0436 1222.34 42.6699C1222.48 42.2962 1222.55 41.9043 1222.55 41.4941C1222.55 40.8971 1222.35 40.4118 1221.96 40.0381C1221.57 39.6644 1221.06 39.4775 1220.44 39.4775C1219.6 39.4775 1218.8 39.7806 1218.04 40.3867L1217.67 39.915C1218.51 39.2132 1219.43 38.8623 1220.45 38.8623C1221.32 38.8623 1222 39.0947 1222.5 39.5596C1223 40.0244 1223.25 40.6647 1223.25 41.4805C1223.25 42.1413 1223.08 42.7816 1222.75 43.4014C1222.41 44.0166 1221.8 44.7777 1220.91 45.6846L1218.35 48.3164V48.3438H1223.7V49ZM1231.36 41.3574C1231.36 41.9772 1231.16 42.499 1230.77 42.9229C1230.38 43.3467 1229.86 43.6178 1229.21 43.7363V43.7773C1230.01 43.8776 1230.62 44.1328 1231.04 44.543C1231.46 44.9531 1231.67 45.5046 1231.67 46.1973C1231.67 47.1315 1231.35 47.8561 1230.71 48.3711C1230.08 48.8815 1229.16 49.1367 1227.97 49.1367C1226.95 49.1367 1226.07 48.9476 1225.31 48.5693V47.8926C1225.69 48.0931 1226.12 48.2503 1226.59 48.3643C1227.07 48.4782 1227.52 48.5352 1227.94 48.5352C1228.95 48.5352 1229.71 48.3324 1230.21 47.9268C1230.72 47.5166 1230.97 46.9401 1230.97 46.1973C1230.97 45.5365 1230.71 45.0283 1230.19 44.6729C1229.68 44.3174 1228.92 44.1396 1227.91 44.1396H1226.83V43.4834H1227.93C1228.76 43.4834 1229.41 43.2874 1229.9 42.8955C1230.38 42.499 1230.63 41.9635 1230.63 41.2891C1230.63 40.7331 1230.43 40.2887 1230.03 39.9561C1229.64 39.6188 1229.13 39.4502 1228.49 39.4502C1227.99 39.4502 1227.54 39.5208 1227.13 39.6621C1226.72 39.7988 1226.26 40.0358 1225.75 40.373L1225.41 39.915C1225.8 39.5915 1226.27 39.3363 1226.81 39.1494C1227.36 38.958 1227.91 38.8623 1228.47 38.8623C1229.4 38.8623 1230.11 39.0811 1230.61 39.5186C1231.11 39.9515 1231.36 40.5645 1231.36 41.3574ZM1233.29 45.5V44.9395H1236.54V45.5H1233.29ZM1244.98 46.4502H1243.25V49H1242.61V46.4502H1237.47V45.9922L1242.43 38.9512H1243.25V45.8623H1244.98V46.4502ZM1242.61 45.8623V43.0049C1242.61 41.6286 1242.64 40.4733 1242.71 39.5391H1242.65C1242.56 39.7077 1242.28 40.1361 1241.81 40.8242L1238.28 45.8623H1242.61ZM1252.39 43.9756C1252.39 45.7301 1252.12 47.029 1251.58 47.8721C1251.05 48.7152 1250.24 49.1367 1249.15 49.1367C1248.11 49.1367 1247.32 48.7038 1246.77 47.8379C1246.23 46.9674 1245.96 45.68 1245.96 43.9756C1245.96 42.2347 1246.22 40.945 1246.75 40.1064C1247.28 39.2679 1248.08 38.8486 1249.15 38.8486C1250.21 38.8486 1251.01 39.2839 1251.56 40.1543C1252.11 41.0202 1252.39 42.2939 1252.39 43.9756ZM1246.7 43.9756C1246.7 45.5251 1246.9 46.6712 1247.31 47.4141C1247.71 48.1523 1248.33 48.5215 1249.15 48.5215C1250.01 48.5215 1250.64 48.1387 1251.03 47.373C1251.43 46.6074 1251.63 45.4749 1251.63 43.9756C1251.63 42.499 1251.43 41.3779 1251.03 40.6123C1250.64 39.8467 1250.01 39.4639 1249.15 39.4639C1248.29 39.4639 1247.67 39.8467 1247.28 40.6123C1246.89 41.3779 1246.7 42.499 1246.7 43.9756Z" fill="black"/>
<path d="M1138.73 20.7773H1141.69V21.3379H1138.73V24.291H1138.17V21.3379H1135.21V20.7773H1138.17V17.8105H1138.73V20.7773ZM1144.74 26L1148.85 16.6621H1143.2V16.0059H1149.67V16.5049L1145.54 26H1144.74ZM1154.65 22.165C1154.65 20.9574 1154.82 19.8271 1155.17 18.7744C1155.53 17.7217 1156.04 16.7988 1156.71 16.0059H1157.48C1156.8 16.8353 1156.29 17.7764 1155.93 18.8291C1155.57 19.8773 1155.39 20.9847 1155.39 22.1514C1155.39 24.3525 1156.08 26.3737 1157.46 28.2148H1156.71C1156.04 27.4401 1155.53 26.5355 1155.17 25.501C1154.82 24.4665 1154.65 23.3545 1154.65 22.165ZM1165.7 23.4502H1163.98V26H1163.34V23.4502H1158.2V22.9922L1163.15 15.9512H1163.98V22.8623H1165.7V23.4502ZM1163.34 22.8623V20.0049C1163.34 18.6286 1163.37 17.4733 1163.43 16.5391H1163.38C1163.29 16.7077 1163.01 17.1361 1162.54 17.8242L1159.01 22.8623H1163.34ZM1172.98 20.2441C1172.98 21.5566 1172.81 22.6549 1172.46 23.5391C1172.12 24.4232 1171.62 25.0771 1170.96 25.501C1170.3 25.9248 1169.51 26.1367 1168.57 26.1367C1168.1 26.1367 1167.66 26.0775 1167.26 25.959V25.3711C1167.46 25.4349 1167.69 25.485 1167.96 25.5215C1168.24 25.5534 1168.45 25.5693 1168.6 25.5693C1169.73 25.5693 1170.61 25.1637 1171.25 24.3525C1171.88 23.5368 1172.24 22.3496 1172.31 20.791H1172.23C1171.9 21.2285 1171.5 21.5658 1171.04 21.8027C1170.58 22.0352 1170.1 22.1514 1169.6 22.1514C1168.67 22.1514 1167.95 21.8962 1167.43 21.3857C1166.92 20.8753 1166.66 20.1507 1166.66 19.2119C1166.66 18.2093 1166.94 17.3981 1167.51 16.7783C1168.08 16.1585 1168.81 15.8486 1169.72 15.8486C1170.38 15.8486 1170.95 16.0218 1171.44 16.3682C1171.94 16.71 1172.31 17.2135 1172.58 17.8789C1172.85 18.5443 1172.98 19.3327 1172.98 20.2441ZM1169.72 16.4502C1169 16.4502 1168.43 16.694 1168 17.1816C1167.57 17.6647 1167.36 18.3278 1167.36 19.1709C1167.36 19.9639 1167.55 20.5654 1167.95 20.9756C1168.35 21.3857 1168.92 21.5908 1169.65 21.5908C1170.11 21.5908 1170.54 21.4883 1170.94 21.2832C1171.34 21.0781 1171.66 20.807 1171.89 20.4697C1172.13 20.1279 1172.24 19.7816 1172.24 19.4307C1172.24 18.8975 1172.14 18.3984 1171.92 17.9336C1171.71 17.4688 1171.42 17.1064 1171.03 16.8467C1170.66 16.5824 1170.22 16.4502 1169.72 16.4502ZM1180.98 20.2441C1180.98 21.5566 1180.81 22.6549 1180.46 23.5391C1180.12 24.4232 1179.62 25.0771 1178.96 25.501C1178.3 25.9248 1177.51 26.1367 1176.57 26.1367C1176.1 26.1367 1175.66 26.0775 1175.26 25.959V25.3711C1175.45 25.4349 1175.69 25.485 1175.96 25.5215C1176.24 25.5534 1176.45 25.5693 1176.6 25.5693C1177.72 25.5693 1178.61 25.1637 1179.24 24.3525C1179.88 23.5368 1180.24 22.3496 1180.31 20.791H1180.23C1179.9 21.2285 1179.5 21.5658 1179.04 21.8027C1178.58 22.0352 1178.1 22.1514 1177.6 22.1514C1176.67 22.1514 1175.95 21.8962 1175.43 21.3857C1174.91 20.8753 1174.66 20.1507 1174.66 19.2119C1174.66 18.2093 1174.94 17.3981 1175.5 16.7783C1176.07 16.1585 1176.81 15.8486 1177.72 15.8486C1178.38 15.8486 1178.95 16.0218 1179.44 16.3682C1179.93 16.71 1180.31 17.2135 1180.58 17.8789C1180.85 18.5443 1180.98 19.3327 1180.98 20.2441ZM1177.72 16.4502C1177 16.4502 1176.43 16.694 1176 17.1816C1175.57 17.6647 1175.35 18.3278 1175.35 19.1709C1175.35 19.9639 1175.55 20.5654 1175.95 20.9756C1176.35 21.3857 1176.91 21.5908 1177.65 21.5908C1178.11 21.5908 1178.54 21.4883 1178.94 21.2832C1179.34 21.0781 1179.65 20.807 1179.89 20.4697C1180.12 20.1279 1180.24 19.7816 1180.24 19.4307C1180.24 18.8975 1180.14 18.3984 1179.92 17.9336C1179.71 17.4688 1179.42 17.1064 1179.03 16.8467C1178.65 16.5824 1178.22 16.4502 1177.72 16.4502ZM1185.14 22.165C1185.14 23.3636 1184.97 24.4801 1184.61 25.5146C1184.26 26.5492 1183.75 27.4492 1183.09 28.2148H1182.33C1183.71 26.3737 1184.41 24.3525 1184.41 22.1514C1184.41 20.9801 1184.23 19.8704 1183.87 18.8223C1183.51 17.7695 1182.99 16.8307 1182.31 16.0059H1183.09C1183.76 16.8034 1184.27 17.7308 1184.62 18.7881C1184.97 19.8408 1185.14 20.9665 1185.14 22.165ZM1196.43 20.2441C1196.43 21.5566 1196.26 22.6549 1195.91 23.5391C1195.57 24.4232 1195.07 25.0771 1194.41 25.501C1193.75 25.9248 1192.95 26.1367 1192.02 26.1367C1191.55 26.1367 1191.11 26.0775 1190.71 25.959V25.3711C1190.9 25.4349 1191.14 25.485 1191.41 25.5215C1191.69 25.5534 1191.9 25.5693 1192.05 25.5693C1193.17 25.5693 1194.06 25.1637 1194.69 24.3525C1195.33 23.5368 1195.69 22.3496 1195.76 20.791H1195.68C1195.35 21.2285 1194.95 21.5658 1194.49 21.8027C1194.03 22.0352 1193.55 22.1514 1193.05 22.1514C1192.12 22.1514 1191.4 21.8962 1190.88 21.3857C1190.36 20.8753 1190.11 20.1507 1190.11 19.2119C1190.11 18.2093 1190.39 17.3981 1190.95 16.7783C1191.52 16.1585 1192.26 15.8486 1193.17 15.8486C1193.83 15.8486 1194.4 16.0218 1194.89 16.3682C1195.38 16.71 1195.76 17.2135 1196.03 17.8789C1196.3 18.5443 1196.43 19.3327 1196.43 20.2441ZM1193.17 16.4502C1192.45 16.4502 1191.87 16.694 1191.45 17.1816C1191.02 17.6647 1190.8 18.3278 1190.8 19.1709C1190.8 19.9639 1191 20.5654 1191.4 20.9756C1191.79 21.3857 1192.36 21.5908 1193.1 21.5908C1193.56 21.5908 1193.99 21.4883 1194.39 21.2832C1194.79 21.0781 1195.1 20.807 1195.34 20.4697C1195.57 20.1279 1195.69 19.7816 1195.69 19.4307C1195.69 18.8975 1195.58 18.3984 1195.37 17.9336C1195.16 17.4688 1194.86 17.1064 1194.48 16.8467C1194.1 16.5824 1193.67 16.4502 1193.17 16.4502ZM1205.15 23.4502H1203.42V26H1202.78V23.4502H1197.64V22.9922L1202.6 15.9512H1203.42V22.8623H1205.15V23.4502ZM1202.78 22.8623V20.0049C1202.78 18.6286 1202.81 17.4733 1202.88 16.5391H1202.82C1202.73 16.7077 1202.45 17.1361 1201.98 17.8242L1198.45 22.8623H1202.78ZM1212.56 20.9756C1212.56 22.7301 1212.29 24.029 1211.75 24.8721C1211.22 25.7152 1210.41 26.1367 1209.32 26.1367C1208.28 26.1367 1207.49 25.7038 1206.94 24.8379C1206.4 23.9674 1206.13 22.68 1206.13 20.9756C1206.13 19.2347 1206.39 17.945 1206.92 17.1064C1207.44 16.2679 1208.25 15.8486 1209.32 15.8486C1210.38 15.8486 1211.18 16.2839 1211.73 17.1543C1212.28 18.0202 1212.56 19.2939 1212.56 20.9756ZM1206.87 20.9756C1206.87 22.5251 1207.07 23.6712 1207.48 24.4141C1207.88 25.1523 1208.5 25.5215 1209.32 25.5215C1210.18 25.5215 1210.81 25.1387 1211.2 24.373C1211.6 23.6074 1211.8 22.4749 1211.8 20.9756C1211.8 19.499 1211.6 18.3779 1211.2 17.6123C1210.81 16.8467 1210.18 16.4639 1209.32 16.4639C1208.46 16.4639 1207.84 16.8467 1207.45 17.6123C1207.06 18.3779 1206.87 19.499 1206.87 20.9756ZM1213.97 22.5V21.9395H1217.22V22.5H1213.97ZM1221.83 15.835C1222.68 15.835 1223.36 16.0514 1223.88 16.4844C1224.4 16.9173 1224.66 17.5029 1224.66 18.2412C1224.66 18.7516 1224.49 19.2028 1224.17 19.5947C1223.85 19.9867 1223.33 20.349 1222.61 20.6816C1223.49 21.0417 1224.1 21.4359 1224.46 21.8643C1224.81 22.2926 1224.99 22.8122 1224.99 23.4229C1224.99 24.2477 1224.7 24.9062 1224.12 25.3984C1223.55 25.8906 1222.78 26.1367 1221.8 26.1367C1220.8 26.1367 1220.03 25.9066 1219.49 25.4463C1218.95 24.986 1218.68 24.3161 1218.68 23.4365C1218.68 22.8395 1218.87 22.3154 1219.25 21.8643C1219.63 21.4131 1220.21 21.028 1221 20.709C1220.27 20.3626 1219.75 19.998 1219.45 19.6152C1219.15 19.2279 1219 18.7653 1219 18.2275C1219 17.749 1219.12 17.3298 1219.36 16.9697C1219.61 16.6051 1219.94 16.3249 1220.38 16.1289C1220.81 15.9329 1221.3 15.835 1221.83 15.835ZM1219.38 23.5391C1219.38 24.168 1219.59 24.6556 1220.01 25.002C1220.44 25.3483 1221.04 25.5215 1221.8 25.5215C1222.55 25.5215 1223.15 25.3392 1223.61 24.9746C1224.07 24.6055 1224.29 24.1064 1224.29 23.4775C1224.29 22.9124 1224.11 22.4544 1223.75 22.1035C1223.4 21.748 1222.71 21.3766 1221.69 20.9893C1220.85 21.3128 1220.26 21.6706 1219.9 22.0625C1219.55 22.4544 1219.38 22.9466 1219.38 23.5391ZM1221.82 16.4502C1221.18 16.4502 1220.66 16.6097 1220.27 16.9287C1219.88 17.2432 1219.69 17.6761 1219.69 18.2275C1219.69 18.5465 1219.76 18.8291 1219.9 19.0752C1220.04 19.3167 1220.25 19.5378 1220.52 19.7383C1220.79 19.9342 1221.25 20.1644 1221.89 20.4287C1222.63 20.1416 1223.16 19.8249 1223.49 19.4785C1223.81 19.1322 1223.97 18.7152 1223.97 18.2275C1223.97 17.6807 1223.78 17.2477 1223.39 16.9287C1223.01 16.6097 1222.48 16.4502 1221.82 16.4502ZM1228.13 26L1232.25 16.6621H1226.6V16.0059H1233.06V16.5049L1228.93 26H1228.13ZM1234.48 22.5V21.9395H1237.73V22.5H1234.48ZM1240.64 26L1244.76 16.6621H1239.11V16.0059H1245.57V16.5049L1241.44 26H1240.64ZM1248.64 26L1252.76 16.6621H1247.1V16.0059H1253.57V16.5049L1249.44 26H1248.64Z" fill="black"/>
<g opacity="0.5">
<path d="M1119.92 36.0999V38.5999C1119.92 38.832 1119.87 39.0617 1119.78 39.2744C1119.69 39.487 1119.55 39.6779 1119.38 39.8348C1119.21 39.9917 1119.01 40.1112 1118.79 40.1855C1118.57 40.2599 1118.33 40.2875 1118.1 40.2666C1115.54 39.988 1113.07 39.1117 1110.91 37.7083C1108.9 36.4288 1107.19 34.7217 1105.91 32.7083C1104.5 30.5343 1103.63 28.0591 1103.35 25.4833C1103.33 25.2528 1103.36 25.0206 1103.43 24.8013C1103.51 24.582 1103.63 24.3805 1103.78 24.2096C1103.94 24.0387 1104.13 23.9022 1104.34 23.8087C1104.55 23.7152 1104.78 23.6668 1105.01 23.6666H1107.51C1107.92 23.6626 1108.31 23.8058 1108.61 24.0695C1108.92 24.3332 1109.12 24.6995 1109.18 25.0999C1109.28 25.9 1109.48 26.6855 1109.76 27.4416C1109.87 27.7399 1109.9 28.064 1109.83 28.3757C1109.76 28.6873 1109.61 28.9733 1109.39 29.1999L1108.33 30.2583C1109.51 32.3445 1111.24 34.072 1113.33 35.2583L1114.39 34.1999C1114.61 33.9759 1114.9 33.8215 1115.21 33.755C1115.52 33.6885 1115.85 33.7128 1116.14 33.8249C1116.9 34.107 1117.69 34.3027 1118.49 34.4083C1118.89 34.4654 1119.26 34.6693 1119.52 34.9812C1119.79 35.2931 1119.93 35.6912 1119.92 36.0999Z" stroke="#020F59" stroke-linecap="round" stroke-linejoin="round"/>
<path d="M1119.92 36.0999V38.5999C1119.92 38.832 1119.87 39.0617 1119.78 39.2744C1119.69 39.487 1119.55 39.6779 1119.38 39.8348C1119.21 39.9917 1119.01 40.1112 1118.79 40.1855C1118.57 40.2599 1118.33 40.2875 1118.1 40.2666C1115.54 39.988 1113.07 39.1117 1110.91 37.7083C1108.9 36.4288 1107.19 34.7217 1105.91 32.7083C1104.5 30.5343 1103.63 28.0591 1103.35 25.4833C1103.33 25.2528 1103.36 25.0206 1103.43 24.8013C1103.51 24.582 1103.63 24.3805 1103.78 24.2096C1103.94 24.0387 1104.13 23.9022 1104.34 23.8087C1104.55 23.7152 1104.78 23.6668 1105.01 23.6666H1107.51C1107.92 23.6626 1108.31 23.8058 1108.61 24.0695C1108.92 24.3332 1109.12 24.6995 1109.18 25.0999C1109.28 25.9 1109.48 26.6855 1109.76 27.4416C1109.87 27.7399 1109.9 28.064 1109.83 28.3757C1109.76 28.6873 1109.61 28.9733 1109.39 29.1999L1108.33 30.2583C1109.51 32.3445 1111.24 34.072 1113.33 35.2583L1114.39 34.1999C1114.61 33.9759 1114.9 33.8215 1115.21 33.755C1115.52 33.6885 1115.85 33.7128 1116.14 33.8249C1116.9 34.107 1117.69 34.3027 1118.49 34.4083C1118.89 34.4654 1119.26 34.6693 1119.52 34.9812C1119.79 35.2931 1119.93 35.6912 1119.92 36.0999Z" fill="#020F59" stroke="#020F59" stroke-linecap="round" stroke-linejoin="round"/>
</g>
<path d="M817.749 26H817.072V18.5693H822.999V26H822.322V19.2119H817.749V26ZM826.171 18.5693V21.8301H830.888V18.5693H831.558V26H830.888V22.418H826.171V26H825.494V18.5693H826.171ZM833.438 22.5V21.9395H836.685V22.5H833.438ZM839.241 26H838.564V18.5693H844.491V26H843.814V19.2119H839.241V26ZM851.703 19.1572H849.229V26H848.559V19.1572H846.022V18.5693H851.703V19.1572ZM860.289 26H859.619V18.7197C859.619 18.0589 859.646 17.373 859.701 16.6621C859.633 16.7305 859.562 16.7965 859.489 16.8604C859.416 16.9242 858.712 17.4779 857.377 18.5215L856.987 18.0361L859.701 16.0059H860.289V26ZM868.287 26H867.617V18.7197C867.617 18.0589 867.645 17.373 867.699 16.6621C867.631 16.7305 867.56 16.7965 867.487 16.8604C867.414 16.9242 866.71 17.4779 865.375 18.5215L864.985 18.0361L867.699 16.0059H868.287V26ZM872.73 25.4668C872.73 25.0202 872.913 24.7969 873.277 24.7969C873.651 24.7969 873.838 25.0202 873.838 25.4668C873.838 25.9134 873.651 26.1367 873.277 26.1367C872.913 26.1367 872.73 25.9134 872.73 25.4668ZM872.73 19.3623C872.73 18.9157 872.913 18.6924 873.277 18.6924C873.651 18.6924 873.838 18.9157 873.838 19.3623C873.838 19.6038 873.783 19.777 873.674 19.8818C873.569 19.9867 873.437 20.0391 873.277 20.0391C873.122 20.0391 872.993 19.9867 872.888 19.8818C872.783 19.777 872.73 19.6038 872.73 19.3623ZM882.171 20.9756C882.171 22.7301 881.902 24.029 881.364 24.8721C880.831 25.7152 880.022 26.1367 878.938 26.1367C877.894 26.1367 877.101 25.7038 876.559 24.8379C876.016 23.9674 875.745 22.68 875.745 20.9756C875.745 19.2347 876.007 17.945 876.531 17.1064C877.06 16.2679 877.862 15.8486 878.938 15.8486C879.99 15.8486 880.792 16.2839 881.344 17.1543C881.895 18.0202 882.171 19.2939 882.171 20.9756ZM876.483 20.9756C876.483 22.5251 876.686 23.6712 877.092 24.4141C877.497 25.1523 878.113 25.5215 878.938 25.5215C879.799 25.5215 880.425 25.1387 880.817 24.373C881.214 23.6074 881.412 22.4749 881.412 20.9756C881.412 19.499 881.214 18.3779 880.817 17.6123C880.425 16.8467 879.799 16.4639 878.938 16.4639C878.076 16.4639 877.452 16.8467 877.064 17.6123C876.677 18.3779 876.483 19.499 876.483 20.9756ZM890.169 20.9756C890.169 22.7301 889.9 24.029 889.362 24.8721C888.829 25.7152 888.02 26.1367 886.936 26.1367C885.892 26.1367 885.099 25.7038 884.557 24.8379C884.014 23.9674 883.743 22.68 883.743 20.9756C883.743 19.2347 884.005 17.945 884.529 17.1064C885.058 16.2679 885.86 15.8486 886.936 15.8486C887.988 15.8486 888.79 16.2839 889.342 17.1543C889.893 18.0202 890.169 19.2939 890.169 20.9756ZM884.481 20.9756C884.481 22.5251 884.684 23.6712 885.09 24.4141C885.495 25.1523 886.111 25.5215 886.936 25.5215C887.797 25.5215 888.424 25.1387 888.815 24.373C889.212 23.6074 889.41 22.4749 889.41 20.9756C889.41 19.499 889.212 18.3779 888.815 17.6123C888.424 16.8467 887.797 16.4639 886.936 16.4639C886.074 16.4639 885.45 16.8467 885.062 17.6123C884.675 18.3779 884.481 19.499 884.481 20.9756ZM891.584 22.5V21.9395H894.831V22.5H891.584ZM902.494 26H896.239V25.3984L898.898 22.623C899.646 21.8483 900.17 21.2559 900.471 20.8457C900.771 20.4355 900.993 20.0436 901.134 19.6699C901.275 19.2962 901.346 18.9043 901.346 18.4941C901.346 17.8971 901.15 17.4118 900.758 17.0381C900.366 16.6644 899.858 16.4775 899.233 16.4775C898.399 16.4775 897.602 16.7806 896.841 17.3867L896.472 16.915C897.306 16.2132 898.231 15.8623 899.247 15.8623C900.118 15.8623 900.801 16.0947 901.298 16.5596C901.799 17.0244 902.05 17.6647 902.05 18.4805C902.05 19.1413 901.881 19.7816 901.544 20.4014C901.211 21.0166 900.601 21.7777 899.712 22.6846L897.148 25.3164V25.3438H902.494V26ZM910.677 20.9756C910.677 22.7301 910.408 24.029 909.87 24.8721C909.337 25.7152 908.528 26.1367 907.443 26.1367C906.4 26.1367 905.607 25.7038 905.064 24.8379C904.522 23.9674 904.251 22.68 904.251 20.9756C904.251 19.2347 904.513 17.945 905.037 17.1064C905.566 16.2679 906.368 15.8486 907.443 15.8486C908.496 15.8486 909.298 16.2839 909.85 17.1543C910.401 18.0202 910.677 19.2939 910.677 20.9756ZM904.989 20.9756C904.989 22.5251 905.192 23.6712 905.598 24.4141C906.003 25.1523 906.618 25.5215 907.443 25.5215C908.305 25.5215 908.931 25.1387 909.323 24.373C909.72 23.6074 909.918 22.4749 909.918 20.9756C909.918 19.499 909.72 18.3779 909.323 17.6123C908.931 16.8467 908.305 16.4639 907.443 16.4639C906.582 16.4639 905.958 16.8467 905.57 17.6123C905.183 18.3779 904.989 19.499 904.989 20.9756ZM912.57 25.4668C912.57 25.0202 912.753 24.7969 913.117 24.7969C913.491 24.7969 913.678 25.0202 913.678 25.4668C913.678 25.9134 913.491 26.1367 913.117 26.1367C912.753 26.1367 912.57 25.9134 912.57 25.4668ZM912.57 19.3623C912.57 18.9157 912.753 18.6924 913.117 18.6924C913.491 18.6924 913.678 18.9157 913.678 19.3623C913.678 19.6038 913.623 19.777 913.514 19.8818C913.409 19.9867 913.277 20.0391 913.117 20.0391C912.962 20.0391 912.832 19.9867 912.728 19.8818C912.623 19.777 912.57 19.6038 912.57 19.3623ZM922.011 20.9756C922.011 22.7301 921.742 24.029 921.204 24.8721C920.671 25.7152 919.862 26.1367 918.777 26.1367C917.734 26.1367 916.941 25.7038 916.398 24.8379C915.856 23.9674 915.585 22.68 915.585 20.9756C915.585 19.2347 915.847 17.945 916.371 17.1064C916.9 16.2679 917.702 15.8486 918.777 15.8486C919.83 15.8486 920.632 16.2839 921.184 17.1543C921.735 18.0202 922.011 19.2939 922.011 20.9756ZM916.323 20.9756C916.323 22.5251 916.526 23.6712 916.932 24.4141C917.337 25.1523 917.952 25.5215 918.777 25.5215C919.639 25.5215 920.265 25.1387 920.657 24.373C921.054 23.6074 921.252 22.4749 921.252 20.9756C921.252 19.499 921.054 18.3779 920.657 17.6123C920.265 16.8467 919.639 16.4639 918.777 16.4639C917.916 16.4639 917.292 16.8467 916.904 17.6123C916.517 18.3779 916.323 19.499 916.323 20.9756ZM930.009 20.9756C930.009 22.7301 929.74 24.029 929.202 24.8721C928.669 25.7152 927.86 26.1367 926.775 26.1367C925.732 26.1367 924.939 25.7038 924.396 24.8379C923.854 23.9674 923.583 22.68 923.583 20.9756C923.583 19.2347 923.845 17.945 924.369 17.1064C924.898 16.2679 925.7 15.8486 926.775 15.8486C927.828 15.8486 928.63 16.2839 929.182 17.1543C929.733 18.0202 930.009 19.2939 930.009 20.9756ZM924.321 20.9756C924.321 22.5251 924.524 23.6712 924.93 24.4141C925.335 25.1523 925.951 25.5215 926.775 25.5215C927.637 25.5215 928.263 25.1387 928.655 24.373C929.052 23.6074 929.25 22.4749 929.25 20.9756C929.25 19.499 929.052 18.3779 928.655 17.6123C928.263 16.8467 927.637 16.4639 926.775 16.4639C925.914 16.4639 925.29 16.8467 924.902 17.6123C924.515 18.3779 924.321 19.499 924.321 20.9756Z" fill="black"/>
<path d="M820.039 49.1367C818.977 49.1367 818.146 48.8018 817.544 48.1318C816.942 47.4619 816.642 46.5277 816.642 45.3291C816.642 44.0986 816.954 43.1416 817.578 42.458C818.202 41.7699 819.057 41.4258 820.142 41.4258C820.784 41.4258 821.399 41.5374 821.987 41.7607L821.803 42.3623C821.16 42.1481 820.602 42.041 820.128 42.041C819.216 42.041 818.526 42.3236 818.057 42.8887C817.587 43.4492 817.353 44.2581 817.353 45.3154C817.353 46.318 817.587 47.1042 818.057 47.6738C818.526 48.2389 819.182 48.5215 820.025 48.5215C820.7 48.5215 821.326 48.4007 821.905 48.1592V48.7881C821.431 49.0205 820.809 49.1367 820.039 49.1367ZM823.327 44.5361C823.327 41.3096 824.236 39.4707 826.055 39.0195C826.693 38.86 827.303 38.7256 827.887 38.6162C828.475 38.5023 828.994 38.402 829.445 38.3154L829.568 38.9033L828.748 39.0605C827.395 39.3158 826.501 39.5117 826.068 39.6484C825.453 39.8262 824.97 40.2523 824.619 40.9268C824.273 41.6012 824.075 42.5241 824.024 43.6953H824.065C824.553 43.1165 825.027 42.7041 825.487 42.458C825.948 42.2074 826.422 42.082 826.909 42.082C827.821 42.082 828.518 42.376 829.001 42.9639C829.484 43.5518 829.726 44.388 829.726 45.4727C829.726 46.6257 829.448 47.5257 828.892 48.1729C828.336 48.8154 827.554 49.1367 826.547 49.1367C825.526 49.1367 824.733 48.738 824.168 47.9404C823.607 47.1429 823.327 46.0081 823.327 44.5361ZM826.602 48.5215C827.381 48.5215 827.976 48.2617 828.386 47.7422C828.8 47.2227 829.008 46.4753 829.008 45.5C829.008 44.5749 828.823 43.8776 828.454 43.4082C828.09 42.9342 827.552 42.6973 826.841 42.6973C826.312 42.6973 825.799 42.8636 825.303 43.1963C824.811 43.5244 824.38 43.9801 824.011 44.5635C824.011 45.3792 824.111 46.0947 824.312 46.71C824.517 47.3252 824.813 47.7809 825.2 48.0771C825.588 48.3734 826.055 48.5215 826.602 48.5215ZM832.542 47.373L832.624 47.5166C832.282 48.7243 831.886 49.8203 831.435 50.8047H830.99C831.341 49.5514 831.592 48.4076 831.742 47.373H832.542ZM844.115 43.3604C844.115 43.8298 843.999 44.1989 843.767 44.4678C843.534 44.7321 843.156 44.9167 842.632 45.0215V45.0693C843.229 45.1377 843.66 45.3109 843.924 45.5889C844.193 45.8623 844.327 46.2565 844.327 46.7715C844.327 47.487 844.09 48.0384 843.616 48.4258C843.147 48.8086 842.459 49 841.552 49H838.414V41.5693H841.565C842.413 41.5693 843.049 41.722 843.473 42.0273C843.901 42.3327 844.115 42.777 844.115 43.3604ZM843.609 46.7578C843.609 45.8464 842.91 45.3906 841.511 45.3906H839.091V48.3574H841.606C842.942 48.3574 843.609 47.8242 843.609 46.7578ZM843.397 43.415C843.397 42.9821 843.243 42.6745 842.933 42.4922C842.623 42.3053 842.158 42.2119 841.538 42.2119H839.091V44.7549H841.456C842.149 44.7549 842.646 44.6478 842.946 44.4336C843.247 44.2194 843.397 43.8799 843.397 43.415ZM849.311 49.1367C848.249 49.1367 847.417 48.8018 846.815 48.1318C846.214 47.4619 845.913 46.5277 845.913 45.3291C845.913 44.0986 846.225 43.1416 846.85 42.458C847.474 41.7699 848.328 41.4258 849.413 41.4258C850.056 41.4258 850.671 41.5374 851.259 41.7607L851.074 42.3623C850.432 42.1481 849.873 42.041 849.399 42.041C848.488 42.041 847.798 42.3236 847.328 42.8887C846.859 43.4492 846.624 44.2581 846.624 45.3154C846.624 46.318 846.859 47.1042 847.328 47.6738C847.798 48.2389 848.454 48.5215 849.297 48.5215C849.971 48.5215 850.598 48.4007 851.177 48.1592V48.7881C850.703 49.0205 850.081 49.1367 849.311 49.1367ZM860.057 49H859.387V41.7197C859.387 41.0589 859.414 40.373 859.469 39.6621C859.4 39.7305 859.33 39.7965 859.257 39.8604C859.184 39.9242 858.48 40.4779 857.145 41.5215L856.755 41.0361L859.469 39.0059H860.057V49ZM868.055 49H867.385V41.7197C867.385 41.0589 867.412 40.373 867.467 39.6621C867.398 39.7305 867.328 39.7965 867.255 39.8604C867.182 39.9242 866.478 40.4779 865.143 41.5215L864.753 41.0361L867.467 39.0059H868.055V49ZM872.498 48.4668C872.498 48.0202 872.68 47.7969 873.045 47.7969C873.419 47.7969 873.605 48.0202 873.605 48.4668C873.605 48.9134 873.419 49.1367 873.045 49.1367C872.68 49.1367 872.498 48.9134 872.498 48.4668ZM872.498 42.3623C872.498 41.9157 872.68 41.6924 873.045 41.6924C873.419 41.6924 873.605 41.9157 873.605 42.3623C873.605 42.6038 873.551 42.777 873.441 42.8818C873.337 42.9867 873.204 43.0391 873.045 43.0391C872.89 43.0391 872.76 42.9867 872.655 42.8818C872.55 42.777 872.498 42.6038 872.498 42.3623ZM881.938 43.9756C881.938 45.7301 881.67 47.029 881.132 47.8721C880.599 48.7152 879.79 49.1367 878.705 49.1367C877.661 49.1367 876.868 48.7038 876.326 47.8379C875.784 46.9674 875.513 45.68 875.513 43.9756C875.513 42.2347 875.775 40.945 876.299 40.1064C876.827 39.2679 877.63 38.8486 878.705 38.8486C879.758 38.8486 880.56 39.2839 881.111 40.1543C881.663 41.0202 881.938 42.2939 881.938 43.9756ZM876.251 43.9756C876.251 45.5251 876.454 46.6712 876.859 47.4141C877.265 48.1523 877.88 48.5215 878.705 48.5215C879.566 48.5215 880.193 48.1387 880.585 47.373C880.981 46.6074 881.18 45.4749 881.18 43.9756C881.18 42.499 880.981 41.3779 880.585 40.6123C880.193 39.8467 879.566 39.4639 878.705 39.4639C877.844 39.4639 877.219 39.8467 876.832 40.6123C876.445 41.3779 876.251 42.499 876.251 43.9756ZM889.937 43.9756C889.937 45.7301 889.668 47.029 889.13 47.8721C888.597 48.7152 887.788 49.1367 886.703 49.1367C885.66 49.1367 884.867 48.7038 884.324 47.8379C883.782 46.9674 883.511 45.68 883.511 43.9756C883.511 42.2347 883.773 40.945 884.297 40.1064C884.826 39.2679 885.628 38.8486 886.703 38.8486C887.756 38.8486 888.558 39.2839 889.109 40.1543C889.661 41.0202 889.937 42.2939 889.937 43.9756ZM884.249 43.9756C884.249 45.5251 884.452 46.6712 884.857 47.4141C885.263 48.1523 885.878 48.5215 886.703 48.5215C887.564 48.5215 888.191 48.1387 888.583 47.373C888.979 46.6074 889.178 45.4749 889.178 43.9756C889.178 42.499 888.979 41.3779 888.583 40.6123C888.191 39.8467 887.564 39.4639 886.703 39.4639C885.842 39.4639 885.217 39.8467 884.83 40.6123C884.443 41.3779 884.249 42.499 884.249 43.9756ZM891.352 45.5V44.9395H894.599V45.5H891.352ZM899.896 49H899.227V41.7197C899.227 41.0589 899.254 40.373 899.309 39.6621C899.24 39.7305 899.17 39.7965 899.097 39.8604C899.024 39.9242 898.32 40.4779 896.984 41.5215L896.595 41.0361L899.309 39.0059H899.896V49ZM905.516 49L909.631 39.6621H903.978V39.0059H910.444V39.5049L906.315 49H905.516ZM912.338 48.4668C912.338 48.0202 912.52 47.7969 912.885 47.7969C913.258 47.7969 913.445 48.0202 913.445 48.4668C913.445 48.9134 913.258 49.1367 912.885 49.1367C912.52 49.1367 912.338 48.9134 912.338 48.4668ZM912.338 42.3623C912.338 41.9157 912.52 41.6924 912.885 41.6924C913.258 41.6924 913.445 41.9157 913.445 42.3623C913.445 42.6038 913.391 42.777 913.281 42.8818C913.176 42.9867 913.044 43.0391 912.885 43.0391C912.73 43.0391 912.6 42.9867 912.495 42.8818C912.39 42.777 912.338 42.6038 912.338 42.3623ZM921.778 43.9756C921.778 45.7301 921.509 47.029 920.972 47.8721C920.438 48.7152 919.63 49.1367 918.545 49.1367C917.501 49.1367 916.708 48.7038 916.166 47.8379C915.624 46.9674 915.353 45.68 915.353 43.9756C915.353 42.2347 915.615 40.945 916.139 40.1064C916.667 39.2679 917.469 38.8486 918.545 38.8486C919.598 38.8486 920.4 39.2839 920.951 40.1543C921.503 41.0202 921.778 42.2939 921.778 43.9756ZM916.091 43.9756C916.091 45.5251 916.294 46.6712 916.699 47.4141C917.105 48.1523 917.72 48.5215 918.545 48.5215C919.406 48.5215 920.033 48.1387 920.425 47.373C920.821 46.6074 921.02 45.4749 921.02 43.9756C921.02 42.499 920.821 41.3779 920.425 40.6123C920.033 39.8467 919.406 39.4639 918.545 39.4639C917.684 39.4639 917.059 39.8467 916.672 40.6123C916.285 41.3779 916.091 42.499 916.091 43.9756ZM929.776 43.9756C929.776 45.7301 929.507 47.029 928.97 47.8721C928.437 48.7152 927.628 49.1367 926.543 49.1367C925.499 49.1367 924.706 48.7038 924.164 47.8379C923.622 46.9674 923.351 45.68 923.351 43.9756C923.351 42.2347 923.613 40.945 924.137 40.1064C924.665 39.2679 925.467 38.8486 926.543 38.8486C927.596 38.8486 928.398 39.2839 928.949 40.1543C929.501 41.0202 929.776 42.2939 929.776 43.9756ZM924.089 43.9756C924.089 45.5251 924.292 46.6712 924.697 47.4141C925.103 48.1523 925.718 48.5215 926.543 48.5215C927.404 48.5215 928.031 48.1387 928.423 47.373C928.819 46.6074 929.018 45.4749 929.018 43.9756C929.018 42.499 928.819 41.3779 928.423 40.6123C928.031 39.8467 927.404 39.4639 926.543 39.4639C925.682 39.4639 925.057 39.8467 924.67 40.6123C924.283 41.3779 924.089 42.499 924.089 43.9756Z" fill="black"/>
<g opacity="0.5">
<path d="M793 41.3334C797.603 41.3334 801.334 37.6025 801.334 33.0001C801.334 28.3977 797.603 24.6667 793 24.6667C788.398 24.6667 784.667 28.3977 784.667 33.0001C784.667 37.6025 788.398 41.3334 793 41.3334Z" fill="#020F59" stroke="#020F59" stroke-linecap="round" stroke-linejoin="round"/>
<path d="M793 28V33L796.333 34.6667" stroke="white" stroke-linecap="round" stroke-linejoin="round"/>
</g>
<g opacity="0.8">
<circle cx="1435.24" cy="35.5" r="10.9375" fill="#020F59"/>
<path d="M1436.35 33.3332V32.0899C1436.35 31.5286 1436.47 31.2447 1437.37 31.2447H1438.49V29.1562H1436.62C1434.32 29.1562 1433.57 30.1809 1433.57 31.9398V33.3332H1432.06V35.4216H1433.57V41.687H1436.35V35.4216H1438.24L1438.49 33.3332H1436.35Z" fill="white"/>
</g>
<g opacity="0.8">
<circle cx="1478.34" cy="35.5" r="10.9375" fill="#020F59"/>
<path d="M1484.98 39.0272C1484.96 38.9872 1484.94 38.954 1484.93 38.9274C1484.68 38.4481 1484.2 37.8599 1483.5 37.1626L1483.48 37.1466L1483.48 37.1388L1483.47 37.1307H1483.46C1483.14 36.806 1482.94 36.5877 1482.85 36.4759C1482.7 36.2629 1482.66 36.0474 1482.75 35.829C1482.81 35.664 1483.03 35.3155 1483.42 34.7831C1483.63 34.5009 1483.79 34.2748 1483.91 34.1044C1484.77 32.88 1485.15 32.0976 1485.03 31.7569L1484.99 31.6772C1484.96 31.6293 1484.88 31.5854 1484.75 31.5455C1484.63 31.5055 1484.47 31.4989 1484.28 31.5255L1482.12 31.5414C1482.09 31.5282 1482.04 31.5295 1481.97 31.5455C1481.91 31.5614 1481.87 31.5695 1481.87 31.5695L1481.84 31.5895L1481.81 31.6135C1481.78 31.6294 1481.75 31.6573 1481.72 31.6973C1481.69 31.7371 1481.67 31.7838 1481.65 31.837C1481.42 32.4811 1481.15 33.08 1480.85 33.6336C1480.66 33.9637 1480.49 34.2497 1480.34 34.492C1480.19 34.7341 1480.06 34.9125 1479.95 35.0269C1479.85 35.1413 1479.75 35.233 1479.67 35.3023C1479.58 35.3716 1479.52 35.4009 1479.47 35.3902C1479.43 35.3795 1479.39 35.3689 1479.34 35.3582C1479.28 35.3103 1479.22 35.2451 1479.18 35.1626C1479.13 35.0801 1479.11 34.9762 1479.09 34.8511C1479.08 34.726 1479.07 34.6183 1479.06 34.5278C1479.06 34.4373 1479.06 34.3094 1479.07 34.1444C1479.07 33.9793 1479.08 33.8676 1479.08 33.8091C1479.08 33.6068 1479.08 33.3872 1479.09 33.1503C1479.09 32.9134 1479.1 32.7257 1479.11 32.5875C1479.11 32.449 1479.11 32.3026 1479.11 32.1482C1479.11 31.9939 1479.1 31.8728 1479.09 31.7849C1479.07 31.6971 1479.04 31.612 1479.01 31.5294C1478.97 31.4469 1478.92 31.383 1478.86 31.3377C1478.79 31.2925 1478.7 31.2566 1478.6 31.2299C1478.34 31.166 1478 31.1315 1477.59 31.1261C1476.67 31.1155 1476.07 31.1794 1475.81 31.3179C1475.7 31.3763 1475.61 31.4562 1475.52 31.5573C1475.43 31.6745 1475.42 31.7384 1475.48 31.7489C1475.78 31.7968 1476 31.9112 1476.12 32.0922L1476.17 32.1881C1476.2 32.2573 1476.24 32.3798 1476.27 32.5554C1476.3 32.7311 1476.33 32.9254 1476.34 33.1382C1476.36 33.5269 1476.36 33.8596 1476.34 34.1363C1476.31 34.4132 1476.29 34.6287 1476.27 34.7831C1476.24 34.9375 1476.21 35.0626 1476.17 35.1584C1476.12 35.2542 1476.09 35.3128 1476.08 35.334C1476.06 35.3553 1476.05 35.3687 1476.04 35.3739C1475.97 35.4005 1475.91 35.414 1475.84 35.414C1475.77 35.414 1475.68 35.3767 1475.58 35.3021C1475.48 35.2275 1475.38 35.1251 1475.27 34.9947C1475.16 34.8642 1475.04 34.6819 1474.91 34.4477C1474.77 34.2135 1474.63 33.9367 1474.49 33.6173L1474.37 33.3857C1474.29 33.2367 1474.19 33.0197 1474.06 32.735C1473.93 32.4501 1473.82 32.1746 1473.72 31.9084C1473.68 31.7966 1473.62 31.7115 1473.54 31.653L1473.5 31.6289C1473.48 31.6077 1473.44 31.5851 1473.38 31.5611C1473.33 31.537 1473.27 31.5198 1473.21 31.5092L1471.16 31.5251C1470.95 31.5251 1470.81 31.5757 1470.73 31.6769L1470.7 31.7248C1470.69 31.7514 1470.68 31.794 1470.68 31.8526C1470.68 31.9111 1470.7 31.983 1470.73 32.0681C1471.02 32.8188 1471.35 33.5427 1471.7 34.24C1472.05 34.9374 1472.36 35.4991 1472.62 35.9247C1472.88 36.3506 1473.14 36.7526 1473.41 37.1304C1473.68 37.5084 1473.86 37.7506 1473.95 37.8571C1474.03 37.9637 1474.1 38.0434 1474.15 38.0966L1474.34 38.2882C1474.46 38.416 1474.63 38.569 1474.87 38.7473C1475.1 38.9257 1475.36 39.1013 1475.64 39.2745C1475.92 39.4474 1476.25 39.5884 1476.62 39.6975C1477 39.8067 1477.36 39.8506 1477.71 39.8294H1478.57C1478.75 39.8133 1478.88 39.7548 1478.97 39.6537L1479 39.6137C1479.02 39.5819 1479.04 39.5326 1479.06 39.4661C1479.07 39.3996 1479.08 39.3263 1479.08 39.2466C1479.08 39.0177 1479.09 38.8114 1479.13 38.6278C1479.17 38.4442 1479.21 38.3058 1479.26 38.2126C1479.31 38.1195 1479.36 38.0409 1479.42 37.9772C1479.48 37.9133 1479.52 37.8747 1479.55 37.8613C1479.57 37.8479 1479.59 37.8389 1479.61 37.8334C1479.73 37.7908 1479.87 37.8321 1480.03 37.9573C1480.19 38.0824 1480.34 38.2368 1480.49 38.4204C1480.63 38.6041 1480.8 38.8103 1481 39.0392C1481.2 39.2681 1481.37 39.4383 1481.52 39.5502L1481.67 39.6461C1481.77 39.71 1481.9 39.7685 1482.06 39.8218C1482.22 39.875 1482.36 39.8883 1482.48 39.8617L1484.4 39.8298C1484.58 39.8298 1484.73 39.7963 1484.84 39.7299C1484.94 39.6633 1485 39.59 1485.02 39.5104C1485.04 39.4305 1485.05 39.34 1485.03 39.2387C1485.01 39.1377 1484.99 39.0671 1484.98 39.0272Z" fill="white"/>
</g>
<g opacity="0.8">
<g clip-path="url(#clip0_7319_131)">
<path d="M1566.12 35.5C1566.12 36.6562 1565.18 37.5935 1564.02 37.5935C1562.87 37.5935 1561.93 36.6562 1561.93 35.5C1561.93 34.3438 1562.87 33.4065 1564.02 33.4065C1565.18 33.4065 1566.12 34.3438 1566.12 35.5Z" fill="#020F59"/>
<path d="M1564.02 24.5625C1557.98 24.5625 1553.09 29.4603 1553.09 35.5C1553.09 41.5397 1557.98 46.4375 1564.02 46.4375C1570.06 46.4375 1574.96 41.5397 1574.96 35.5C1574.96 29.4603 1570.06 24.5625 1564.02 24.5625ZM1570.27 38.0893C1570.24 38.7579 1570.13 39.2144 1569.98 39.6139C1569.65 40.4576 1568.98 41.1245 1568.14 41.4507C1567.74 41.6059 1567.28 41.7121 1566.61 41.7426C1565.94 41.7732 1565.73 41.7805 1564.02 41.7805C1562.32 41.7805 1562.1 41.7732 1561.44 41.7426C1560.77 41.7121 1560.31 41.6059 1559.91 41.4507C1559.49 41.293 1559.11 41.0459 1558.8 40.7263C1558.48 40.4127 1558.23 40.033 1558.07 39.6139C1557.92 39.2145 1557.81 38.7579 1557.78 38.0895C1557.75 37.4196 1557.74 37.2056 1557.74 35.5C1557.74 33.7944 1557.75 33.5804 1557.78 32.9107C1557.81 32.2421 1557.92 31.7856 1558.07 31.3861C1558.23 30.967 1558.48 30.5873 1558.8 30.2737C1559.11 29.9541 1559.49 29.707 1559.91 29.5493C1560.31 29.3941 1560.77 29.2879 1561.44 29.2574C1562.1 29.2268 1562.32 29.2195 1564.02 29.2195C1565.73 29.2195 1565.94 29.2268 1566.61 29.2575C1567.28 29.2879 1567.74 29.3941 1568.14 29.5491C1568.56 29.7068 1568.94 29.9541 1569.25 30.2737C1569.57 30.5875 1569.82 30.967 1569.98 31.3861C1570.13 31.7856 1570.24 32.2421 1570.27 32.9107C1570.3 33.5804 1570.3 33.7944 1570.3 35.5C1570.3 37.2056 1570.3 37.4196 1570.27 38.0893Z" fill="#020F59"/>
<ellipse cx="1567.03" cy="31.9453" rx="0.820312" ry="0.820312" fill="#020F59"/>
</g>
</g>
<g opacity="0.8">
<path d="M1521.29 25.0002H1521.28C1515.49 25.0002 1510.78 29.7095 1510.78 35.5002C1510.78 37.7971 1511.52 39.926 1512.78 41.6546L1511.47 45.5553L1515.51 44.2651C1517.17 45.365 1519.15 46.0002 1521.29 46.0002C1527.08 46.0002 1531.78 41.2897 1531.78 35.5002C1531.78 29.7108 1527.08 25.0002 1521.29 25.0002ZM1527.4 39.8276C1527.14 40.5429 1526.14 41.1361 1525.33 41.3094C1524.79 41.4262 1524.07 41.5194 1521.66 40.5192C1518.57 39.2409 1516.58 36.1053 1516.43 35.9019C1516.28 35.6984 1515.18 34.2416 1515.18 32.7348C1515.18 31.2281 1515.95 30.4944 1516.26 30.1794C1516.51 29.9208 1516.93 29.8027 1517.33 29.8027C1517.46 29.8027 1517.58 29.8092 1517.68 29.8145C1517.99 29.8276 1518.15 29.846 1518.35 30.3329C1518.6 30.9432 1519.22 32.45 1519.29 32.6049C1519.37 32.7597 1519.44 32.9697 1519.34 33.1732C1519.24 33.3832 1519.15 33.4764 1519 33.6549C1518.84 33.8334 1518.69 33.9699 1518.54 34.1615C1518.4 34.3282 1518.24 34.5067 1518.42 34.8151C1518.6 35.117 1519.21 36.1237 1520.12 36.9322C1521.29 37.9756 1522.24 38.309 1522.58 38.4507C1522.84 38.5557 1523.14 38.5308 1523.32 38.3339C1523.56 38.0806 1523.85 37.6606 1524.14 37.2472C1524.35 36.9506 1524.62 36.9138 1524.9 37.0188C1525.18 37.1172 1526.68 37.8588 1526.99 38.0124C1527.3 38.1672 1527.5 38.2407 1527.58 38.3707C1527.65 38.5006 1527.65 39.1109 1527.4 39.8276Z" fill="#020F59"/>
</g>
<g opacity="0.8">
<circle cx="1606.69" cy="35.5" r="10.9375" fill="#020F59"/>
<path d="M1604.19 37.0541L1603.97 40.0291C1604.28 40.0291 1604.42 39.8991 1604.58 39.743L1606.03 38.3871L1609.05 40.5401C1609.6 40.8406 1609.99 40.6823 1610.14 40.044L1612.12 31.0017L1612.12 31.0011C1612.3 30.2041 1611.83 29.8924 1611.29 30.0879L1599.65 34.4307C1598.85 34.7311 1598.86 35.1627 1599.51 35.3582L1602.49 36.2602L1609.4 32.0454C1609.73 31.8355 1610.02 31.9516 1609.78 32.1615L1604.19 37.0541Z" fill="white"/>
</g>
<defs>
<clipPath id="clip0_7319_131">
<rect width="21.875" height="21.875" fill="white" transform="translate(1553.09 24.5625)"/>
</clipPath>
</defs>
</svg>
