<svg width="233" height="34" viewBox="0 0 233 34" fill="none" xmlns="http://www.w3.org/2000/svg">
<path d="M25.4003 1.05V33H22.2953V18.06H3.35031V33H0.200313V1.05H3.35031V15.27H22.2953V1.05H25.4003ZM48.543 33.225C46.293 33.225 44.253 32.775 42.423 31.875C40.593 30.945 39.018 29.715 37.698 28.185C36.378 26.655 35.358 24.93 34.638 23.01C33.918 21.06 33.558 19.065 33.558 17.025C33.558 14.895 33.933 12.87 34.683 10.95C35.433 9 36.483 7.275 37.833 5.775C39.213 4.245 40.818 3.045 42.648 2.175C44.478 1.275 46.458 0.824998 48.588 0.824998C50.808 0.824998 52.833 1.29 54.663 2.22C56.493 3.15 58.068 4.395 59.388 5.955C60.738 7.515 61.758 9.255 62.448 11.175C63.168 13.095 63.528 15.06 63.528 17.07C63.528 19.2 63.153 21.24 62.403 23.19C61.653 25.11 60.603 26.835 59.253 28.365C57.903 29.865 56.313 31.05 54.483 31.92C52.653 32.79 50.673 33.225 48.543 33.225ZM36.708 17.025C36.708 18.765 36.993 20.43 37.563 22.02C38.133 23.61 38.943 25.035 39.993 26.295C41.043 27.555 42.288 28.56 43.728 29.31C45.198 30.03 46.803 30.39 48.543 30.39C50.373 30.39 52.008 30.015 53.448 29.265C54.918 28.485 56.163 27.45 57.183 26.16C58.233 24.87 59.028 23.445 59.568 21.885C60.108 20.295 60.378 18.675 60.378 17.025C60.378 15.285 60.093 13.62 59.523 12.03C58.953 10.44 58.128 9.015 57.048 7.755C55.998 6.495 54.753 5.505 53.313 4.785C51.873 4.065 50.283 3.705 48.543 3.705C46.743 3.705 45.108 4.08 43.638 4.83C42.198 5.58 40.953 6.6 39.903 7.89C38.883 9.15 38.088 10.575 37.518 12.165C36.978 13.755 36.708 15.375 36.708 17.025ZM95.7469 24.765C95.7469 26.355 95.3419 27.78 94.5319 29.04C93.7219 30.27 92.6269 31.245 91.2469 31.965C89.8969 32.655 88.4119 33 86.7919 33H71.7169V1.05H87.1069C88.6069 1.05 89.8969 1.455 90.9769 2.265C92.0569 3.045 92.8969 4.065 93.4969 5.325C94.0969 6.555 94.3969 7.845 94.3969 9.195C94.3969 10.785 93.9919 12.255 93.1819 13.605C92.3719 14.955 91.2469 15.96 89.8069 16.62C91.6069 17.16 93.0469 18.165 94.1269 19.635C95.2069 21.105 95.7469 22.815 95.7469 24.765ZM74.8669 3.795V15.585H85.8469C86.8969 15.585 87.8269 15.315 88.6369 14.775C89.4769 14.205 90.1219 13.485 90.5719 12.615C91.0519 11.715 91.2919 10.74 91.2919 9.69C91.2919 8.61 91.0669 7.62 90.6169 6.72C90.1669 5.82 89.5519 5.115 88.7719 4.605C87.9919 4.065 87.1069 3.795 86.1169 3.795H74.8669ZM92.5969 24.225C92.5969 23.175 92.3569 22.185 91.8769 21.255C91.3969 20.325 90.7369 19.575 89.8969 19.005C89.0869 18.435 88.1569 18.15 87.1069 18.15H74.8669V30.255H86.7919C87.8719 30.255 88.8469 29.97 89.7169 29.4C90.5869 28.83 91.2769 28.095 91.7869 27.195C92.3269 26.265 92.5969 25.275 92.5969 24.225ZM104.118 33V1.05H107.223V28.68L127.023 1.05H129.948V33H126.843V5.865L107.268 33H104.118ZM165.577 1.05V33H162.472V18.06H143.527V33H140.377V1.05H143.527V15.27H162.472V1.05H165.577ZM175.85 33V1.05H179V15.27H183.815L194.795 1.05H198.44L186.425 16.53L199.205 33H195.335L183.905 18.15H179V33H175.85ZM206.8 33V1.05H209.905V28.68L229.705 1.05H232.63V33H229.525V5.865L209.95 33H206.8Z" fill="black"/>
</svg>
