<svg width="633" height="28" viewBox="0 0 633 28" fill="none" xmlns="http://www.w3.org/2000/svg">
<path d="M11 23.16C9.4 23.16 7.94933 22.84 6.648 22.2C5.34667 21.5387 4.22667 20.664 3.288 19.576C2.34933 18.488 1.624 17.2613 1.112 15.896C0.6 14.5093 0.344 13.0907 0.344 11.64C0.344 10.1253 0.610667 8.68533 1.144 7.32C1.67733 5.93333 2.424 4.70667 3.384 3.64C4.36533 2.552 5.50667 1.69867 6.808 1.08C8.10933 0.439999 9.51733 0.119999 11.032 0.119999C12.6107 0.119999 14.0507 0.450666 15.352 1.112C16.6533 1.77333 17.7733 2.65867 18.712 3.768C19.672 4.87733 20.3973 6.11467 20.888 7.48C21.4 8.84533 21.656 10.2427 21.656 11.672C21.656 13.1867 21.3893 14.6373 20.856 16.024C20.3227 17.3893 19.576 18.616 18.616 19.704C17.656 20.7707 16.5253 21.6133 15.224 22.232C13.9227 22.8507 12.5147 23.16 11 23.16ZM2.584 11.64C2.584 12.8773 2.78667 14.0613 3.192 15.192C3.59733 16.3227 4.17333 17.336 4.92 18.232C5.66667 19.128 6.552 19.8427 7.576 20.376C8.62133 20.888 9.76267 21.144 11 21.144C12.3013 21.144 13.464 20.8773 14.488 20.344C15.5333 19.7893 16.4187 19.0533 17.144 18.136C17.8907 17.2187 18.456 16.2053 18.84 15.096C19.224 13.9653 19.416 12.8133 19.416 11.64C19.416 10.4027 19.2133 9.21867 18.808 8.088C18.4027 6.95733 17.816 5.944 17.048 5.048C16.3013 4.152 15.416 3.448 14.392 2.936C13.368 2.424 12.2373 2.168 11 2.168C9.72 2.168 8.55733 2.43467 7.512 2.968C6.488 3.50133 5.60267 4.22667 4.856 5.144C4.13067 6.04 3.56533 7.05333 3.16 8.184C2.776 9.31467 2.584 10.4667 2.584 11.64ZM25.9753 11.48C25.9753 10.1147 26.2099 8.76 26.6793 7.416C27.1699 6.072 27.8739 4.856 28.7913 3.768C29.7086 2.65867 30.8393 1.784 32.1833 1.144C33.5273 0.482665 35.0526 0.151999 36.7593 0.151999C38.7646 0.151999 40.4926 0.621332 41.9433 1.56C43.3939 2.47733 44.4606 3.66133 45.1433 5.112L43.3833 6.2C42.8926 5.19733 42.2739 4.408 41.5273 3.832C40.7806 3.23467 39.9806 2.808 39.1273 2.552C38.2953 2.296 37.4633 2.168 36.6313 2.168C35.2659 2.168 34.0606 2.44533 33.0153 3C31.9699 3.53333 31.0846 4.25867 30.3593 5.176C29.6553 6.09333 29.1219 7.10667 28.7593 8.216C28.3966 9.32533 28.2153 10.456 28.2153 11.608C28.2153 12.8667 28.4286 14.072 28.8553 15.224C29.2819 16.3547 29.8793 17.368 30.6473 18.264C31.4153 19.16 32.3113 19.8747 33.3353 20.408C34.3806 20.92 35.5113 21.176 36.7273 21.176C37.5806 21.176 38.4553 21.0267 39.3513 20.728C40.2473 20.4293 41.0793 19.9707 41.8473 19.352C42.6153 18.7333 43.2446 17.9333 43.7353 16.952L45.5913 17.912C45.1006 19.0427 44.3646 20.0027 43.3833 20.792C42.4233 21.5813 41.3353 22.1787 40.1193 22.584C38.9246 22.9893 37.7513 23.192 36.5993 23.192C35.0419 23.192 33.6126 22.8613 32.3113 22.2C31.0099 21.5173 29.8793 20.6213 28.9193 19.512C27.9806 18.3813 27.2553 17.1227 26.7433 15.736C26.2313 14.328 25.9753 12.9093 25.9753 11.48ZM59.9188 23.16C58.3188 23.16 56.8681 22.84 55.5668 22.2C54.2654 21.5387 53.1454 20.664 52.2068 19.576C51.2681 18.488 50.5428 17.2613 50.0308 15.896C49.5188 14.5093 49.2628 13.0907 49.2628 11.64C49.2628 10.1253 49.5294 8.68533 50.0628 7.32C50.5961 5.93333 51.3428 4.70667 52.3028 3.64C53.2841 2.552 54.4254 1.69867 55.7268 1.08C57.0281 0.439999 58.4361 0.119999 59.9508 0.119999C61.5294 0.119999 62.9694 0.450666 64.2708 1.112C65.5721 1.77333 66.6921 2.65867 67.6308 3.768C68.5908 4.87733 69.3161 6.11467 69.8068 7.48C70.3188 8.84533 70.5748 10.2427 70.5748 11.672C70.5748 13.1867 70.3081 14.6373 69.7748 16.024C69.2414 17.3893 68.4948 18.616 67.5348 19.704C66.5748 20.7707 65.4441 21.6133 64.1428 22.232C62.8414 22.8507 61.4334 23.16 59.9188 23.16ZM51.5028 11.64C51.5028 12.8773 51.7054 14.0613 52.1108 15.192C52.5161 16.3227 53.0921 17.336 53.8388 18.232C54.5854 19.128 55.4708 19.8427 56.4948 20.376C57.5401 20.888 58.6814 21.144 59.9188 21.144C61.2201 21.144 62.3828 20.8773 63.4068 20.344C64.4521 19.7893 65.3374 19.0533 66.0628 18.136C66.8094 17.2187 67.3748 16.2053 67.7588 15.096C68.1428 13.9653 68.3348 12.8133 68.3348 11.64C68.3348 10.4027 68.1321 9.21867 67.7268 8.088C67.3214 6.95733 66.7348 5.944 65.9668 5.048C65.2201 4.152 64.3348 3.448 63.3108 2.936C62.2868 2.424 61.1561 2.168 59.9188 2.168C58.6388 2.168 57.4761 2.43467 56.4308 2.968C55.4068 3.50133 54.5214 4.22667 53.7748 5.144C53.0494 6.04 52.4841 7.05333 52.0788 8.184C51.6948 9.31467 51.5028 10.4667 51.5028 11.64ZM76.398 23V0.279999H91.63V2.264H78.638V10.168H86.126C88.622 10.168 90.4673 10.7547 91.662 11.928C92.8567 13.08 93.454 14.584 93.454 16.44C93.454 17.656 93.1873 18.7653 92.654 19.768C92.142 20.7493 91.3527 21.5387 90.286 22.136C89.2193 22.712 87.8967 23 86.318 23H76.398ZM78.638 21.016H86.062C87.278 21.016 88.2593 20.792 89.006 20.344C89.774 19.896 90.3287 19.32 90.67 18.616C91.0113 17.8907 91.182 17.144 91.182 16.376C91.182 15.608 91.0327 14.8933 90.734 14.232C90.4353 13.5493 89.902 13.0053 89.134 12.6C88.3873 12.1733 87.3313 11.96 85.966 11.96H78.638V21.016ZM114.137 21.016V23H98.873V0.279999H113.849V2.264H101.113V10.456H112.217V12.344H101.113V21.016H114.137ZM137.893 0.279999V23H135.685V12.376H122.213V23H119.973V0.279999H122.213V10.392H135.685V0.279999H137.893ZM163.118 0.279999V23H160.91V12.376H147.438V23H145.198V0.279999H147.438V10.392H160.91V0.279999H163.118ZM170.423 23V0.279999H172.663V9.112H178.423C180.876 9.112 182.711 9.752 183.927 11.032C185.164 12.312 185.783 13.9867 185.783 16.056C185.783 17.336 185.516 18.5093 184.983 19.576C184.45 20.6213 183.639 21.4533 182.551 22.072C181.484 22.6907 180.162 23 178.583 23H170.423ZM189.751 23V0.311998H191.959V23H189.751ZM172.663 21.112H178.295C179.554 21.112 180.567 20.8773 181.335 20.408C182.103 19.9173 182.658 19.288 182.999 18.52C183.362 17.752 183.543 16.9307 183.543 16.056C183.543 15.1813 183.383 14.36 183.063 13.592C182.743 12.8027 182.199 12.1733 181.431 11.704C180.663 11.2347 179.607 11 178.263 11H172.663V21.112ZM214.506 21.016V23H199.242V0.279999H214.218V2.264H201.482V10.456H212.586V12.344H201.482V21.016H214.506ZM239.25 23.16C237.65 23.16 236.199 22.84 234.898 22.2C233.597 21.5387 232.477 20.664 231.538 19.576C230.599 18.488 229.874 17.2613 229.362 15.896C228.85 14.5093 228.594 13.0907 228.594 11.64C228.594 10.1253 228.861 8.68533 229.394 7.32C229.927 5.93333 230.674 4.70667 231.634 3.64C232.615 2.552 233.757 1.69867 235.058 1.08C236.359 0.439999 237.767 0.119999 239.282 0.119999C240.861 0.119999 242.301 0.450666 243.602 1.112C244.903 1.77333 246.023 2.65867 246.962 3.768C247.922 4.87733 248.647 6.11467 249.138 7.48C249.65 8.84533 249.906 10.2427 249.906 11.672C249.906 13.1867 249.639 14.6373 249.106 16.024C248.573 17.3893 247.826 18.616 246.866 19.704C245.906 20.7707 244.775 21.6133 243.474 22.232C242.173 22.8507 240.765 23.16 239.25 23.16ZM230.834 11.64C230.834 12.8773 231.037 14.0613 231.442 15.192C231.847 16.3227 232.423 17.336 233.17 18.232C233.917 19.128 234.802 19.8427 235.826 20.376C236.871 20.888 238.013 21.144 239.25 21.144C240.551 21.144 241.714 20.8773 242.738 20.344C243.783 19.7893 244.669 19.0533 245.394 18.136C246.141 17.2187 246.706 16.2053 247.09 15.096C247.474 13.9653 247.666 12.8133 247.666 11.64C247.666 10.4027 247.463 9.21867 247.058 8.088C246.653 6.95733 246.066 5.944 245.298 5.048C244.551 4.152 243.666 3.448 242.642 2.936C241.618 2.424 240.487 2.168 239.25 2.168C237.97 2.168 236.807 2.43467 235.762 2.968C234.738 3.50133 233.853 4.22667 233.106 5.144C232.381 6.04 231.815 7.05333 231.41 8.184C231.026 9.31467 230.834 10.4667 230.834 11.64ZM255.729 23V0.279999H270.961V2.264H257.969V10.168H265.457C267.953 10.168 269.799 10.7547 270.993 11.928C272.188 13.08 272.785 14.584 272.785 16.44C272.785 17.656 272.519 18.7653 271.985 19.768C271.473 20.7493 270.684 21.5387 269.617 22.136C268.551 22.712 267.228 23 265.649 23H255.729ZM257.969 21.016H265.393C266.609 21.016 267.591 20.792 268.337 20.344C269.105 19.896 269.66 19.32 270.001 18.616C270.343 17.8907 270.513 17.144 270.513 16.376C270.513 15.608 270.364 14.8933 270.065 14.232C269.767 13.5493 269.233 13.0053 268.465 12.6C267.719 12.1733 266.663 11.96 265.297 11.96H257.969V21.016ZM278.204 23V0.279999H287.612C288.594 0.279999 289.49 0.482665 290.3 0.887999C291.132 1.29333 291.847 1.848 292.444 2.552C293.063 3.23466 293.532 4.00267 293.852 4.856C294.194 5.688 294.364 6.54133 294.364 7.416C294.364 8.65333 294.087 9.82667 293.532 10.936C292.978 12.024 292.21 12.9093 291.228 13.592C290.247 14.2747 289.106 14.616 287.804 14.616H280.444V23H278.204ZM280.444 12.632H287.708C288.604 12.632 289.383 12.3867 290.044 11.896C290.706 11.4053 291.218 10.7653 291.58 9.976C291.943 9.18667 292.124 8.33333 292.124 7.416C292.124 6.47733 291.911 5.624 291.484 4.856C291.058 4.06667 290.492 3.43733 289.788 2.968C289.106 2.49867 288.348 2.264 287.516 2.264H280.444V12.632ZM302.206 23.064V21.176H303.646C304.137 21.176 304.5 21.0373 304.734 20.76C304.99 20.4827 305.268 20.0667 305.566 19.512L306.558 17.432L296.862 0.279999H299.326L307.582 15.16L314.462 0.279999H316.798L307.294 20.6C306.868 21.4747 306.43 22.104 305.982 22.488C305.534 22.872 304.905 23.064 304.094 23.064H302.206ZM333.733 23V13.208C333.008 13.528 332.133 13.816 331.109 14.072C330.107 14.328 328.987 14.456 327.749 14.456C325.232 14.456 323.376 13.912 322.181 12.824C320.987 11.7147 320.389 9.96533 320.389 7.576V0.279999H322.565V7.32C322.565 9.09067 322.992 10.3813 323.845 11.192C324.72 12.0027 326.128 12.408 328.069 12.408C329.157 12.408 330.213 12.2907 331.237 12.056C332.261 11.8213 333.093 11.5333 333.733 11.192V0.279999H335.909V23H333.733ZM350.263 0.279999H352.151L361.591 23H359.223L356.279 15.896H346.071L343.159 23H340.759L350.263 0.279999ZM355.767 14.136L351.191 2.904L346.551 14.136H355.767ZM381.808 23V2.264H372.528L372.4 7.064C372.293 10.2 372.069 12.8027 371.728 14.872C371.387 16.9413 370.907 18.5733 370.288 19.768C369.669 20.9413 368.901 21.784 367.984 22.296C367.088 22.7867 366.032 23.032 364.816 23.032V21.048C365.648 21.048 366.384 20.8347 367.024 20.408C367.664 19.9813 368.208 19.2347 368.656 18.168C369.104 17.1013 369.456 15.6293 369.712 13.752C369.989 11.8533 370.171 9.45333 370.256 6.552L370.448 0.279999H384.016V23H381.808ZM391.298 23V0.279999H393.538V9.112H399.298C401.751 9.112 403.586 9.752 404.802 11.032C406.039 12.312 406.658 13.9867 406.658 16.056C406.658 17.336 406.391 18.5093 405.858 19.576C405.325 20.6213 404.514 21.4533 403.426 22.072C402.359 22.6907 401.037 23 399.458 23H391.298ZM393.538 21.112H399.17C400.429 21.112 401.442 20.8773 402.21 20.408C402.978 19.9173 403.533 19.288 403.874 18.52C404.237 17.752 404.418 16.9307 404.418 16.056C404.418 15.1813 404.258 14.36 403.938 13.592C403.618 12.8027 403.074 12.1733 402.306 11.704C401.538 11.2347 400.482 11 399.138 11H393.538V21.112ZM430.349 0.279999V23H428.141V12.376H414.669V23H412.429V0.279999H414.669V10.392H428.141V0.279999H430.349ZM437.654 23V0.279999H439.894V9.112H445.654C448.108 9.112 449.942 9.752 451.158 11.032C452.396 12.312 453.014 13.9867 453.014 16.056C453.014 17.336 452.748 18.5093 452.214 19.576C451.681 20.6213 450.87 21.4533 449.782 22.072C448.716 22.6907 447.393 23 445.814 23H437.654ZM456.982 23V0.311998H459.19V23H456.982ZM439.894 21.112H445.526C446.785 21.112 447.798 20.8773 448.566 20.408C449.334 19.9173 449.889 19.288 450.23 18.52C450.593 17.752 450.774 16.9307 450.774 16.056C450.774 15.1813 450.614 14.36 450.294 13.592C449.974 12.8027 449.43 12.1733 448.662 11.704C447.894 11.2347 446.838 11 445.494 11H439.894V21.112ZM481.737 21.016V23H466.473V0.279999H481.449V2.264H468.713V10.456H479.817V12.344H468.713V21.016H481.737ZM497.329 23V0.279999H499.569V10.392H502.993L510.801 0.279999H513.393L504.849 11.288L513.937 23H511.185L503.057 12.44H499.569V23H497.329ZM527.112 23.16C525.512 23.16 524.062 22.84 522.76 22.2C521.459 21.5387 520.339 20.664 519.4 19.576C518.462 18.488 517.736 17.2613 517.224 15.896C516.712 14.5093 516.456 13.0907 516.456 11.64C516.456 10.1253 516.723 8.68533 517.256 7.32C517.79 5.93333 518.536 4.70667 519.496 3.64C520.478 2.552 521.619 1.69867 522.92 1.08C524.222 0.439999 525.63 0.119999 527.144 0.119999C528.723 0.119999 530.163 0.450666 531.464 1.112C532.766 1.77333 533.886 2.65867 534.824 3.768C535.784 4.87733 536.51 6.11467 537 7.48C537.512 8.84533 537.768 10.2427 537.768 11.672C537.768 13.1867 537.502 14.6373 536.968 16.024C536.435 17.3893 535.688 18.616 534.728 19.704C533.768 20.7707 532.638 21.6133 531.336 22.232C530.035 22.8507 528.627 23.16 527.112 23.16ZM518.696 11.64C518.696 12.8773 518.899 14.0613 519.304 15.192C519.71 16.3227 520.286 17.336 521.032 18.232C521.779 19.128 522.664 19.8427 523.688 20.376C524.734 20.888 525.875 21.144 527.112 21.144C528.414 21.144 529.576 20.8773 530.6 20.344C531.646 19.7893 532.531 19.0533 533.256 18.136C534.003 17.2187 534.568 16.2053 534.952 15.096C535.336 13.9653 535.528 12.8133 535.528 11.64C535.528 10.4027 535.326 9.21867 534.92 8.088C534.515 6.95733 533.928 5.944 533.16 5.048C532.414 4.152 531.528 3.448 530.504 2.936C529.48 2.424 528.35 2.168 527.112 2.168C525.832 2.168 524.67 2.43467 523.624 2.968C522.6 3.50133 521.715 4.22667 520.968 5.144C520.243 6.04 519.678 7.05333 519.272 8.184C518.888 9.31467 518.696 10.4667 518.696 11.64ZM558.952 23V2.264H549.672L549.544 7.064C549.437 10.2 549.213 12.8027 548.872 14.872C548.53 16.9413 548.05 18.5733 547.432 19.768C546.813 20.9413 546.045 21.784 545.128 22.296C544.232 22.7867 543.176 23.032 541.96 23.032V21.048C542.792 21.048 543.528 20.8347 544.168 20.408C544.808 19.9813 545.352 19.2347 545.8 18.168C546.248 17.1013 546.6 15.6293 546.856 13.752C547.133 11.8533 547.314 9.45333 547.4 6.552L547.592 0.279999H561.16V23H558.952ZM568.442 23V0.279999H570.682V9.112H576.442C578.895 9.112 580.73 9.752 581.946 11.032C583.183 12.312 583.802 13.9867 583.802 16.056C583.802 17.336 583.535 18.5093 583.002 19.576C582.468 20.6213 581.658 21.4533 580.57 22.072C579.503 22.6907 578.18 23 576.602 23H568.442ZM570.682 21.112H576.314C577.572 21.112 578.586 20.8773 579.354 20.408C580.122 19.9173 580.676 19.288 581.018 18.52C581.38 17.752 581.562 16.9307 581.562 16.056C581.562 15.1813 581.402 14.36 581.082 13.592C580.762 12.8027 580.218 12.1733 579.45 11.704C578.682 11.2347 577.626 11 576.282 11H570.682V21.112ZM606.885 27.32V23H589.573V0.279999H591.813V21.016H603.909V0.279999H606.117V21.016H608.869V27.32H606.885ZM621.682 0.279999H623.57L633.01 23H630.642L627.698 15.896H617.49L614.578 23H612.178L621.682 0.279999ZM627.186 14.136L622.61 2.904L617.97 14.136H627.186Z" fill="black"/>
</svg>
